<?xml version="1.0" standalone="no"?>
<!DOCTYPE svg PUBLIC "-//W3C//DTD SVG 20010904//EN"
 "http://www.w3.org/TR/2001/REC-SVG-20010904/DTD/svg10.dtd">
<svg version="1.0" xmlns="http://www.w3.org/2000/svg"
 width="512.000000pt" height="512.000000pt" viewBox="0 0 512.000000 512.000000"
 preserveAspectRatio="xMidYMid meet">

<g transform="translate(0.000000,512.000000) scale(0.100000,-0.100000)"
fill="#000000" stroke="none">
<path d="M2403 5012 c-91 -52 -153 -93 -153 -102 1 -16 23 -50 34 -50 5 0 137
74 242 135 l31 19 133 -77 c73 -42 138 -77 145 -77 14 0 38 48 30 60 -3 4 -33
24 -68 43 -34 19 -102 58 -150 86 -48 28 -89 51 -90 51 -1 -1 -71 -40 -154
-88z"/>
<path d="M2410 4913 c-74 -42 -137 -78 -139 -80 -3 -2 3 -19 12 -37 l16 -34
-67 -41 -67 -40 -25 29 -26 29 -224 -130 c-124 -71 -240 -137 -258 -147 -34
-17 -35 -21 -17 -77 5 -17 -5 -27 -58 -58 -35 -20 -68 -37 -74 -37 -6 0 -16
14 -23 31 -7 16 -18 28 -24 26 -11 -5 -508 -296 -514 -302 -2 -2 4 -17 12 -34
16 -30 16 -31 -11 -47 -16 -10 -45 -28 -65 -41 -47 -29 -56 -29 -70 2 -17 39
-10 41 -225 -84 -39 -23 -76 -48 -82 -55 -8 -9 -11 -66 -9 -172 l3 -159 38 -3
37 -3 0 -79 c0 -73 -10 -105 -25 -80 -3 5 -1 10 5 10 7 0 10 23 8 68 l-3 67
-33 3 c-32 3 -32 3 -33 -42 -1 -25 -2 -52 -3 -58 0 -7 -18 -14 -38 -16 l-38
-3 0 -325 0 -324 35 0 35 0 0 310 c0 279 2 310 16 310 13 0 14 -3 5 -14 -8 -9
-11 -99 -9 -307 l3 -294 38 -3 38 -3 -3 -82 -3 -82 -35 -5 -35 -5 -3 -302 -2
-302 37 -3 38 -3 0 -85 0 -85 -38 -3 -37 -3 2 -167 3 -167 145 -82 144 -83 23
28 22 27 66 -35 c37 -19 69 -38 71 -42 2 -3 -4 -20 -13 -36 -10 -17 -15 -33
-13 -35 5 -5 245 -146 400 -235 52 -30 101 -59 107 -64 9 -7 18 0 34 26 11 20
24 34 27 33 54 -28 132 -82 132 -91 0 -6 -7 -21 -15 -33 -19 -27 -24 -23 230
-168 105 -60 207 -119 227 -132 37 -23 68 -30 68 -15 0 4 7 15 15 26 13 18 17
17 82 -19 37 -21 69 -39 71 -41 2 -1 -4 -17 -13 -34 -10 -19 -13 -36 -8 -41
18 -18 267 -159 281 -159 12 0 262 140 285 161 5 3 1 21 -8 39 -9 17 -15 33
-13 34 2 1 32 19 67 41 l64 38 22 -26 c11 -15 25 -27 31 -27 15 0 518 289 522
300 2 5 -4 20 -14 35 -9 14 -15 27 -13 28 33 22 91 58 116 71 l32 16 18 -34
18 -35 100 58 c55 32 141 81 190 110 50 29 123 72 162 94 71 41 85 61 62 84
-19 19 -3 39 63 76 l63 35 25 -28 25 -29 128 73 c70 41 134 79 142 86 12 10
15 43 15 176 l0 163 -37 3 -38 3 -3 79 c-3 86 2 96 51 96 l27 0 0 304 0 305
-37 3 -38 3 -3 82 -3 82 38 3 38 3 0 308 c0 169 3 307 8 307 4 0 7 -139 7
-310 l0 -310 40 0 40 0 -2 323 -3 322 -37 3 -38 3 0 60 0 59 -35 0 -35 0 0
-81 c0 -51 -4 -78 -10 -74 -5 3 -10 42 -10 85 l0 79 38 3 37 3 3 166 2 166
-138 82 c-77 44 -143 81 -148 81 -4 0 -18 -12 -30 -27 l-21 -27 -67 40 c-50
29 -65 43 -61 57 3 9 8 25 11 35 5 16 -38 44 -255 170 -143 84 -262 152 -264
152 -3 0 -10 -13 -17 -30 -7 -16 -17 -30 -22 -30 -11 0 -61 25 -111 57 l-37
23 16 31 c9 17 12 35 7 39 -4 4 -123 74 -263 154 l-255 146 -25 -29 -26 -30
-67 40 c-37 22 -67 42 -67 45 0 3 7 18 15 34 14 26 13 29 -8 42 -60 40 -258
148 -270 148 -7 0 -73 -34 -147 -77z m949 -622 c372 -213 767 -439 878 -502
l202 -114 1 -1090 0 -1090 -63 -36 c-34 -19 -448 -259 -919 -532 -472 -273
-868 -502 -882 -508 -22 -11 -39 -3 -173 76 -81 48 -188 111 -238 140 -49 29
-220 129 -380 222 -159 94 -427 250 -595 348 -168 98 -348 203 -400 235 l-95
56 -3 1085 -2 1085 87 51 c152 86 1706 989 1743 1011 l34 21 64 -35 c36 -20
369 -210 741 -423z"/>
<path d="M2273 4512 l-273 -157 0 -1771 0 -1771 123 -70 c67 -38 167 -96 222
-128 55 -32 125 -73 156 -90 l56 -32 109 62 c96 55 445 256 452 260 7 5 2
3529 -6 3537 -16 16 -543 318 -555 318 -7 0 -135 -71 -284 -158z m543 -56
c137 -80 259 -152 272 -161 l22 -16 0 -1692 c0 -931 -4 -1697 -8 -1703 -10
-15 -530 -314 -546 -314 -7 0 -102 52 -212 116 -109 64 -227 132 -261 152 -35
20 -63 39 -63 44 0 7 32 -10 250 -137 74 -43 170 -98 212 -122 l77 -44 270
157 271 157 0 1687 c0 1594 -1 1688 -17 1702 -27 22 -514 301 -527 301 -15 0
-519 -293 -528 -307 -5 -8 -8 -7 -8 1 0 7 12 20 26 30 64 42 500 292 510 292
6 1 123 -64 260 -143z m-79 -300 l73 -41 0 -1530 0 -1530 -126 -73 -126 -74
-111 63 c-62 34 -118 66 -125 72 -9 7 -12 324 -10 1545 l3 1536 120 67 120 68
55 -31 c30 -17 88 -49 127 -72z"/>
<path d="M1545 4093 c-176 -101 -427 -246 -557 -321 l-238 -136 0 -1047 0
-1047 149 -86 c82 -47 152 -86 156 -86 3 0 5 15 3 33 -3 29 -12 37 -108 94
-58 34 -113 67 -122 73 -17 10 -18 69 -18 1019 l0 1009 138 80 c238 138 520
300 712 410 102 58 193 112 203 120 17 15 23 57 10 65 -5 3 -152 -78 -328
-180z"/>
<path d="M3290 4246 c0 -21 22 -38 148 -112 81 -48 210 -124 287 -170 244
-144 224 -127 269 -231 21 -51 43 -93 48 -93 4 0 8 24 8 53 0 38 -9 69 -33
116 l-32 64 -335 199 c-184 109 -341 198 -347 198 -7 0 -13 -11 -13 -24z"/>
<path d="M3270 2585 c0 -894 2 -1625 5 -1625 5 0 138 78 519 306 l149 89 49
110 c28 61 54 114 59 119 5 6 9 -25 9 -77 0 -48 3 -87 6 -87 10 0 258 141 277
158 9 8 17 10 17 4 0 -10 -42 -44 -65 -53 -30 -12 -165 -92 -175 -104 -14 -17
-8 -51 9 -47 6 1 72 37 146 79 l135 76 0 124 c0 68 -4 123 -8 123 -13 0 -39
-23 -45 -40 -3 -8 -6 2 -6 23 -1 22 -6 37 -13 37 -7 0 -184 -81 -393 -179
-209 -98 -383 -177 -387 -174 -5 2 -8 515 -8 1140 0 1036 1 1135 16 1129 9 -3
185 -105 391 -226 206 -121 379 -218 384 -214 6 3 8 12 5 19 -8 21 5 25 28 10
11 -8 24 -15 28 -15 5 0 8 76 8 169 l0 170 -142 85 c-78 47 -145 83 -150 80
-4 -3 -8 -14 -8 -24 0 -20 35 -47 160 -120 74 -44 90 -56 90 -74 0 -5 -10 0
-22 11 -26 23 -256 163 -269 163 -4 0 -10 -39 -11 -87 l-3 -88 -47 100 c-70
147 -69 146 -123 178 -281 168 -604 357 -610 357 -3 0 -5 -731 -5 -1625z"/>
<path d="M1670 4079 c-113 -65 -348 -201 -522 -301 l-318 -182 0 -1007 0
-1007 127 -73 c70 -41 133 -75 140 -77 10 -3 13 127 13 652 l0 656 180 0 180
0 43 -67 c24 -38 55 -89 70 -115 l27 -47 0 -693 0 -693 108 -59 c59 -33 119
-68 134 -78 14 -10 31 -18 37 -18 8 0 11 217 11 766 l0 765 -110 189 c-60 104
-110 194 -110 201 0 6 50 94 110 194 l110 183 0 466 c0 367 -3 466 -12 465 -7
0 -105 -54 -218 -120z m-60 -599 l0 -229 -68 -113 -68 -113 -180 0 -179 0 -3
201 -2 201 132 78 c73 43 180 107 238 141 58 35 111 63 118 64 9 0 12 -52 12
-230z"/>
<path d="M1570 3489 l0 -201 -71 -119 -72 -119 -143 0 c-87 0 -145 -4 -149
-10 -4 -7 49 -10 161 -8 l168 3 68 114 68 115 0 213 c0 183 -2 213 -15 213
-13 0 -15 -29 -15 -201z"/>
<path d="M1445 2713 c3 -10 33 -62 66 -115 l59 -96 0 -720 0 -719 144 -82 c79
-44 149 -81 155 -81 15 0 14 47 -1 60 -7 7 -69 44 -138 83 l-125 72 -5 700 -5
700 -39 65 c-62 103 -96 150 -108 150 -6 0 -7 -8 -3 -17z"/>
<path d="M4017 1493 c-8 -21 -26 -63 -41 -94 l-25 -56 -243 -144 c-439 -260
-413 -243 -416 -272 -2 -15 1 -27 6 -27 6 0 164 91 352 202 l342 202 29 62
c20 43 29 78 29 113 0 60 -12 65 -33 14z"/>
<path d="M1830 4680 c-140 -82 -263 -154 -273 -160 -17 -10 -17 -12 0 -41 10
-17 23 -27 31 -24 7 3 127 70 266 150 140 80 258 145 264 145 5 0 17 -11 26
-25 l17 -26 59 32 c33 18 60 36 60 41 0 5 -7 20 -16 33 l-16 25 -50 -28 -49
-27 -20 28 c-12 15 -26 27 -32 26 -7 -1 -127 -68 -267 -149z"/>
<path d="M2855 4808 c-8 -13 -15 -27 -15 -33 0 -6 25 -26 57 -44 l56 -34 19
27 c11 14 24 26 30 26 6 0 130 -68 276 -151 l265 -151 18 23 c10 13 19 29 19
34 0 8 -514 309 -553 324 -6 2 -21 -9 -34 -25 l-23 -29 -50 27 -49 28 -16 -22z"/>
<path d="M1125 4270 c-277 -165 -277 -164 -260 -216 5 -18 -1 -26 -39 -48 -25
-15 -46 -29 -46 -31 0 -13 25 -55 32 -55 11 0 118 60 118 66 0 3 -7 18 -15 34
l-15 28 208 123 c317 187 322 190 322 199 0 14 -23 60 -29 60 -3 0 -127 -72
-276 -160z"/>
<path d="M1508 4398 c-51 -32 -56 -43 -34 -74 14 -19 15 -19 61 6 62 34 71 45
57 75 -15 32 -26 31 -84 -7z"/>
<path d="M3531 4403 c-11 -24 -10 -29 11 -44 13 -10 40 -26 62 -36 37 -16 39
-16 52 2 8 10 14 24 14 31 0 12 -98 74 -117 74 -5 0 -15 -12 -22 -27z"/>
<path d="M3708 4400 l-17 -30 37 -24 c36 -23 157 -94 385 -226 59 -34 110 -66
112 -70 3 -5 0 -20 -7 -35 -14 -30 -7 -39 60 -76 43 -23 44 -23 58 -4 26 35
19 44 -74 101 -2 1 4 16 13 34 9 18 15 33 13 35 -2 1 -112 66 -245 143 -132
78 -256 150 -275 162 -18 11 -35 20 -38 20 -3 0 -13 -14 -22 -30z"/>
<path d="M540 3931 l-145 -87 -3 -182 -2 -182 35 0 35 0 0 158 0 158 140 82
141 83 -18 30 c-9 16 -22 29 -28 28 -5 0 -75 -40 -155 -88z"/>
<path d="M4416 3998 c-9 -12 -16 -27 -16 -33 0 -5 61 -46 135 -89 l135 -80 0
-158 0 -158 40 0 40 0 0 179 0 179 -37 22 c-110 66 -273 160 -277 160 -3 0
-12 -10 -20 -22z"/>
<path d="M468 2595 c-1 -37 0 -71 3 -77 3 -5 19 -8 35 -6 29 3 29 3 29 73 l0
70 -32 3 -31 3 -4 -66z"/>
<path d="M4600 2584 l0 -75 33 3 32 3 3 73 3 72 -36 0 -35 0 0 -76z"/>
<path d="M390 2181 l0 -330 38 -3 37 -3 1 -55 1 -55 36 -3 37 -3 0 70 0 70
-37 3 -38 3 -5 315 -5 315 -32 3 -33 3 0 -330z"/>
<path d="M4683 2504 c-10 -4 -13 -78 -13 -320 l0 -314 -35 0 -35 0 0 -70 0
-70 35 0 35 0 0 59 0 60 38 3 37 3 0 325 0 325 -25 2 c-14 1 -31 -1 -37 -3z"/>
<path d="M390 1506 l0 -184 150 -86 c82 -47 154 -86 159 -86 6 0 17 13 26 29
l15 30 -138 78 -137 78 -3 163 -2 162 -35 0 -35 0 0 -184z"/>
<path d="M4670 1528 l0 -163 -33 -19 c-17 -10 -56 -31 -85 -47 -107 -60 -146
-85 -149 -95 -2 -6 5 -22 15 -34 l19 -24 139 79 c77 43 147 85 157 93 15 13
17 36 17 194 l0 178 -40 0 -40 0 0 -162z"/>
<path d="M796 1228 c-24 -33 -20 -41 29 -68 50 -27 51 -29 30 -70 -18 -34 -34
-21 155 -130 69 -40 183 -106 253 -147 70 -41 134 -72 142 -69 13 5 32 53 24
60 -2 1 -35 21 -74 43 -182 104 -441 256 -448 263 -5 4 -1 22 8 40 9 17 15 33
13 34 -2 2 -29 17 -60 35 l-56 32 -16 -23z"/>
<path d="M4262 1217 c-55 -31 -59 -39 -38 -88 7 -16 -124 -97 -456 -286 l-78
-44 15 -30 c9 -16 21 -29 27 -29 10 0 127 65 268 150 25 15 100 59 168 99
l122 72 -15 35 -14 35 49 30 c41 25 48 34 40 48 -20 39 -33 40 -88 8z"/>
<path d="M1470 830 c-7 -17 -11 -32 -9 -34 2 -2 28 -18 57 -36 51 -31 54 -32
67 -14 24 32 16 48 -39 82 -30 17 -56 32 -59 32 -2 0 -10 -14 -17 -30z"/>
<path d="M3581 827 c-30 -18 -56 -37 -58 -43 -2 -6 4 -21 14 -33 l18 -23 58
33 c61 36 66 45 40 78 l-18 21 -54 -33z"/>
<path d="M1560 691 c-17 -32 -12 -45 28 -67 20 -11 145 -82 276 -158 254 -146
241 -142 271 -91 9 15 15 14 59 -11 l49 -27 19 22 c10 13 18 27 18 31 0 5 -26
23 -57 40 l-57 32 -21 -26 c-11 -14 -24 -26 -27 -26 -4 0 -123 68 -266 150
-143 83 -265 150 -270 150 -6 0 -16 -9 -22 -19z"/>
<path d="M3470 675 c-131 -78 -462 -265 -471 -265 -4 0 -16 11 -25 25 -9 14
-20 25 -25 25 -17 0 -109 -62 -109 -74 0 -7 6 -21 14 -32 15 -19 16 -18 65 9
l49 27 25 -31 24 -31 274 157 c151 86 278 160 282 164 12 12 -14 61 -32 60 -9
0 -41 -16 -71 -34z"/>
<path d="M2264 285 c-9 -14 -14 -31 -11 -38 3 -7 73 -53 156 -101 l151 -88 48
30 c26 16 95 57 155 92 59 34 107 64 107 66 0 3 -7 18 -15 35 l-16 30 -52 -30
c-29 -16 -90 -53 -137 -80 -47 -28 -89 -51 -93 -51 -4 0 -69 36 -143 80 l-134
79 -16 -24z"/>
</g>
</svg>
