<svg width="639" height="617" viewBox="0 0 639 617" fill="none" xmlns="http://www.w3.org/2000/svg">
<g clip-path="url(#clip0_253_449)">
<path d="M504.598 50.9517C503.88 50.4175 503.153 49.9109 502.435 49.3951C481.676 34.581 459.426 22.5461 436.144 13.5392L430.745 96.635H396.523V1.40918C394.368 0.911824 392.197 0.442097 390.026 0V96.635H349.357C326.968 96.635 305.496 86.711 289.664 69.0462C273.833 51.3813 264.939 27.4227 264.939 2.44084V2.44075C262.76 2.96574 260.597 3.52757 258.435 4.12625V96.635H225.31L220.167 17.3984C196.241 27.6369 173.527 41.101 152.53 57.491C152.167 57.7673 151.804 58.0528 151.449 58.3292C149.625 59.7568 147.825 61.212 146.034 62.6857V379.697H243.659L241.934 353.033L232.441 206.634H423.605L414.113 353.033L412.388 379.697H508.931V54.1569C507.495 53.0701 506.05 52.0017 504.598 50.9517ZM258.435 182.457H230.873L225.78 103.893H258.435V182.457ZM390.026 182.457H343.736V180.9C343.736 180.152 343.604 179.411 343.347 178.72C343.09 178.029 342.713 177.401 342.239 176.872C341.764 176.344 341.201 175.925 340.581 175.639C339.961 175.354 339.297 175.207 338.626 175.208H318.502C317.832 175.208 317.168 175.355 316.549 175.641C315.93 175.927 315.368 176.346 314.894 176.875C314.42 177.404 314.045 178.031 313.788 178.722C313.532 179.413 313.4 180.153 313.401 180.9V182.457H264.939V103.893H390.026V182.457ZM396.523 182.457V103.893H430.275L425.182 182.457H396.523Z" fill="#F2F2F2"/>
<path d="M610.62 576.153L611.265 559.965C617.992 555.953 625.494 553.834 633.121 553.792C622.624 563.367 623.936 581.826 616.819 594.703C614.572 598.7 611.548 602.082 607.97 604.598C604.392 607.114 600.353 608.699 596.152 609.236L587.367 615.237C586.162 607.739 586.428 600.039 588.146 592.667C589.865 585.295 592.995 578.426 597.322 572.534C599.778 569.256 602.595 566.335 605.706 563.842C607.81 570.032 610.62 576.153 610.62 576.153Z" fill="#F2F2F2"/>
<path d="M139.334 558.413L118.136 551.252C115.356 538.65 115.375 525.48 118.191 512.888C126.921 533.803 151.863 538.593 166.238 555.178C170.686 560.389 174.026 566.65 176.01 573.497C177.995 580.345 178.573 587.602 177.702 594.733L182.341 611.478C171.957 610.642 161.858 607.303 152.742 601.693C143.625 596.082 135.707 588.333 129.532 578.979C126.115 573.694 123.308 567.949 121.177 561.88C130.168 560.743 139.334 558.413 139.334 558.413Z" fill="#F2F2F2"/>
<path d="M594.125 612.59C594.122 613.08 593.947 613.549 593.638 613.897C593.485 614.068 593.303 614.202 593.104 614.294C592.904 614.386 592.69 614.432 592.474 614.432H585.837C585.62 614.433 585.405 614.385 585.205 614.293C585.004 614.201 584.822 614.065 584.668 613.894C584.515 613.723 584.393 613.519 584.311 613.296C584.228 613.072 584.186 612.832 584.186 612.59V388.649C584.186 383.712 582.701 379.706 580.876 379.697H83.5563C81.7238 379.706 80.2463 383.712 80.2381 388.649V611.217C80.2367 611.675 80.0831 612.116 79.8071 612.454C79.5311 612.793 79.1523 613.005 78.744 613.05C77.4068 613.198 76.0696 613.326 74.7406 613.446C74.7076 613.446 74.6746 613.455 74.6416 613.455C73.9152 613.529 73.1888 613.584 72.4624 613.649H72.4542C72.0744 612.884 71.7112 612.101 71.3398 611.319C71.2207 611.053 71.1586 610.759 71.1582 610.462V377.035C71.1582 375.672 71.2077 374.299 71.2903 372.946C71.4081 371.086 71.6147 369.235 71.9094 367.401C73.3044 358.844 76.4575 353.051 80.04 353.033H584.385C584.907 353.037 585.424 353.159 585.903 353.392C586.607 353.739 587.244 354.237 587.777 354.856C588.501 355.696 589.12 356.641 589.618 357.665C591.384 361.138 592.647 366.314 593.093 372.338C593.093 372.393 593.101 372.448 593.101 372.503C593.217 373.995 593.275 375.515 593.266 377.035L593.382 396.773L593.456 408.543L593.679 445.477L593.762 458.592L594.125 612.59Z" fill="#E6E6E6"/>
<path d="M638.017 616.717L410.402 617C410.142 616.999 409.892 616.883 409.709 616.678C409.525 616.472 409.422 616.193 409.422 615.903C409.422 615.613 409.525 615.334 409.709 615.129C409.892 614.923 410.142 614.807 410.402 614.806L638.017 614.523C638.278 614.524 638.527 614.64 638.71 614.846C638.894 615.051 638.997 615.33 638.997 615.62C638.997 615.91 638.894 616.189 638.71 616.394C638.527 616.6 638.278 616.716 638.017 616.717Z" fill="#CACACA"/>
<path d="M355.491 287.604H315.178C314.608 287.604 314.061 287.858 313.658 288.309C313.256 288.759 313.03 289.37 313.03 290.006V361.064H357.644V290.006C357.644 289.691 357.589 289.378 357.481 289.086C357.372 288.795 357.214 288.53 357.014 288.307C356.814 288.084 356.576 287.907 356.315 287.786C356.054 287.665 355.774 287.603 355.491 287.604ZM335.47 327.978C334.209 327.971 333.002 327.409 332.11 326.415C331.219 325.42 330.716 324.073 330.71 322.666V314.47C330.71 313.062 331.211 311.71 332.104 310.714C332.997 309.718 334.208 309.159 335.47 309.159C336.733 309.159 337.943 309.718 338.836 310.714C339.729 311.71 340.23 313.062 340.23 314.47V322.666C340.225 324.073 339.721 325.42 338.83 326.415C337.938 327.409 336.731 327.971 335.47 327.978Z" fill="#2F2E41"/>
<path d="M422.246 176.71H249.923C248.443 176.713 247.024 177.37 245.977 178.538C244.93 179.706 244.341 181.29 244.338 182.942V312.693C244.34 314.345 244.929 315.929 245.976 317.097C247.023 318.266 248.443 318.923 249.923 318.924H422.246C423.727 318.923 425.147 318.266 426.194 317.097C427.241 315.929 427.83 314.345 427.831 312.693V182.942C427.829 181.29 427.24 179.706 426.193 178.538C425.146 177.37 423.727 176.713 422.246 176.71Z" fill="#3F3D56"/>
<path d="M420.805 181.21H251.36C250.568 181.212 249.808 181.565 249.248 182.191C248.688 182.817 248.374 183.665 248.374 184.55V311.085C248.375 311.968 248.69 312.815 249.25 313.439C249.81 314.064 250.569 314.416 251.36 314.417H420.805C421.597 314.416 422.356 314.064 422.915 313.439C423.475 312.815 423.79 311.968 423.792 311.085V184.55C423.792 183.665 423.477 182.817 422.917 182.191C422.357 181.565 421.598 181.212 420.805 181.21Z" fill="white"/>
<path d="M312.892 358.791V365.647C312.893 366.002 313.019 366.342 313.245 366.594C313.47 366.845 313.775 366.986 314.093 366.987H356.582C356.9 366.985 357.204 366.843 357.429 366.592C357.654 366.341 357.781 366.002 357.783 365.647V358.791H312.892Z" fill="#3F3D56"/>
<path d="M387.803 369.373H286.993C286.717 369.373 286.444 369.304 286.195 369.172C285.946 369.039 285.726 368.846 285.553 368.607C285.379 368.368 285.255 368.089 285.19 367.79C285.125 367.49 285.121 367.179 285.178 366.877L286.742 358.588C286.831 358.124 287.06 357.708 287.39 357.409C287.72 357.11 288.132 356.947 288.557 356.945H386.239C386.664 356.947 387.076 357.11 387.406 357.409C387.736 357.708 387.964 358.124 388.053 358.588L389.618 366.877C389.674 367.179 389.67 367.49 389.606 367.79C389.541 368.089 389.417 368.368 389.243 368.607C389.069 368.846 388.85 369.039 388.6 369.172C388.351 369.304 388.079 369.373 387.803 369.373Z" fill="#2F2E41"/>
<path d="M291.974 358.438H289.675C289.453 358.438 289.272 358.639 289.272 358.887V360.067C289.272 360.315 289.453 360.516 289.675 360.516H291.974C292.197 360.516 292.377 360.315 292.377 360.067V358.887C292.377 358.639 292.197 358.438 291.974 358.438Z" fill="#3F3D56"/>
<path d="M298.184 358.438H295.885C295.662 358.438 295.482 358.639 295.482 358.887V360.067C295.482 360.315 295.662 360.516 295.885 360.516H298.184C298.406 360.516 298.587 360.315 298.587 360.067V358.887C298.587 358.639 298.406 358.438 298.184 358.438Z" fill="#3F3D56"/>
<path d="M304.394 358.438H302.095C301.872 358.438 301.692 358.639 301.692 358.887V360.067C301.692 360.315 301.872 360.516 302.095 360.516H304.394C304.616 360.516 304.797 360.315 304.797 360.067V358.887C304.797 358.639 304.616 358.438 304.394 358.438Z" fill="#3F3D56"/>
<path d="M310.603 358.438H308.304C308.082 358.438 307.901 358.639 307.901 358.887V360.067C307.901 360.315 308.082 360.516 308.304 360.516H310.603C310.826 360.516 311.006 360.315 311.006 360.067V358.887C311.006 358.639 310.826 358.438 310.603 358.438Z" fill="#3F3D56"/>
<path d="M316.813 358.438H314.514C314.292 358.438 314.111 358.639 314.111 358.887V360.067C314.111 360.315 314.292 360.516 314.514 360.516H316.813C317.036 360.516 317.216 360.315 317.216 360.067V358.887C317.216 358.639 317.036 358.438 316.813 358.438Z" fill="#3F3D56"/>
<path d="M323.023 358.438H320.724C320.501 358.438 320.321 358.639 320.321 358.887V360.067C320.321 360.315 320.501 360.516 320.724 360.516H323.023C323.245 360.516 323.426 360.315 323.426 360.067V358.887C323.426 358.639 323.245 358.438 323.023 358.438Z" fill="#3F3D56"/>
<path d="M329.233 358.438H326.934C326.711 358.438 326.531 358.639 326.531 358.887V360.067C326.531 360.315 326.711 360.516 326.934 360.516H329.233C329.455 360.516 329.636 360.315 329.636 360.067V358.887C329.636 358.639 329.455 358.438 329.233 358.438Z" fill="#3F3D56"/>
<path d="M335.442 358.438H333.143C332.921 358.438 332.74 358.639 332.74 358.887V360.067C332.74 360.315 332.921 360.516 333.143 360.516H335.442C335.665 360.516 335.845 360.315 335.845 360.067V358.887C335.845 358.639 335.665 358.438 335.442 358.438Z" fill="#3F3D56"/>
<path d="M341.652 358.438H339.353C339.131 358.438 338.95 358.639 338.95 358.887V360.067C338.95 360.315 339.131 360.516 339.353 360.516H341.652C341.875 360.516 342.055 360.315 342.055 360.067V358.887C342.055 358.639 341.875 358.438 341.652 358.438Z" fill="#3F3D56"/>
<path d="M347.862 358.438H345.563C345.34 358.438 345.16 358.639 345.16 358.887V360.067C345.16 360.315 345.34 360.516 345.563 360.516H347.862C348.084 360.516 348.265 360.315 348.265 360.067V358.887C348.265 358.639 348.084 358.438 347.862 358.438Z" fill="#3F3D56"/>
<path d="M354.072 358.438H351.773C351.55 358.438 351.37 358.639 351.37 358.887V360.067C351.37 360.315 351.55 360.516 351.773 360.516H354.072C354.294 360.516 354.474 360.315 354.474 360.067V358.887C354.474 358.639 354.294 358.438 354.072 358.438Z" fill="#3F3D56"/>
<path d="M360.281 358.438H357.982C357.76 358.438 357.579 358.639 357.579 358.887V360.067C357.579 360.315 357.76 360.516 357.982 360.516H360.281C360.504 360.516 360.684 360.315 360.684 360.067V358.887C360.684 358.639 360.504 358.438 360.281 358.438Z" fill="#3F3D56"/>
<path d="M366.491 358.438H364.192C363.969 358.438 363.789 358.639 363.789 358.887V360.067C363.789 360.315 363.969 360.516 364.192 360.516H366.491C366.713 360.516 366.894 360.315 366.894 360.067V358.887C366.894 358.639 366.713 358.438 366.491 358.438Z" fill="#3F3D56"/>
<path d="M372.7 358.438H370.402C370.179 358.438 369.999 358.639 369.999 358.887V360.067C369.999 360.315 370.179 360.516 370.402 360.516H372.7C372.923 360.516 373.103 360.315 373.103 360.067V358.887C373.103 358.639 372.923 358.438 372.7 358.438Z" fill="#3F3D56"/>
<path d="M378.91 358.438H376.611C376.389 358.438 376.208 358.639 376.208 358.887V360.067C376.208 360.315 376.389 360.516 376.611 360.516H378.91C379.133 360.516 379.313 360.315 379.313 360.067V358.887C379.313 358.639 379.133 358.438 378.91 358.438Z" fill="#3F3D56"/>
<path d="M385.12 358.438H382.821C382.598 358.438 382.418 358.639 382.418 358.887V360.067C382.418 360.315 382.598 360.516 382.821 360.516H385.12C385.342 360.516 385.523 360.315 385.523 360.067V358.887C385.523 358.639 385.342 358.438 385.12 358.438Z" fill="#3F3D56"/>
<path d="M291.901 361.902H289.602C289.38 361.902 289.199 362.103 289.199 362.351V363.531C289.199 363.779 289.38 363.981 289.602 363.981H291.901C292.124 363.981 292.304 363.779 292.304 363.531V362.351C292.304 362.103 292.124 361.902 291.901 361.902Z" fill="#3F3D56"/>
<path d="M298.111 361.902H295.812C295.589 361.902 295.409 362.103 295.409 362.351V363.531C295.409 363.779 295.589 363.981 295.812 363.981H298.111C298.333 363.981 298.514 363.779 298.514 363.531V362.351C298.514 362.103 298.333 361.902 298.111 361.902Z" fill="#3F3D56"/>
<path d="M304.32 361.902H302.021C301.799 361.902 301.618 362.103 301.618 362.351V363.531C301.618 363.779 301.799 363.981 302.021 363.981H304.32C304.543 363.981 304.723 363.779 304.723 363.531V362.351C304.723 362.103 304.543 361.902 304.32 361.902Z" fill="#3F3D56"/>
<path d="M310.53 361.902H308.231C308.009 361.902 307.828 362.103 307.828 362.351V363.531C307.828 363.779 308.009 363.981 308.231 363.981H310.53C310.753 363.981 310.933 363.779 310.933 363.531V362.351C310.933 362.103 310.753 361.902 310.53 361.902Z" fill="#3F3D56"/>
<path d="M316.739 361.902H314.441C314.218 361.902 314.038 362.103 314.038 362.351V363.531C314.038 363.779 314.218 363.981 314.441 363.981H316.739C316.962 363.981 317.142 363.779 317.142 363.531V362.351C317.142 362.103 316.962 361.902 316.739 361.902Z" fill="#3F3D56"/>
<path d="M322.949 361.902H320.651C320.428 361.902 320.248 362.103 320.248 362.351V363.531C320.248 363.779 320.428 363.981 320.651 363.981H322.949C323.172 363.981 323.352 363.779 323.352 363.531V362.351C323.352 362.103 323.172 361.902 322.949 361.902Z" fill="#3F3D56"/>
<path d="M329.159 361.902H326.86C326.637 361.902 326.457 362.103 326.457 362.351V363.531C326.457 363.779 326.637 363.981 326.86 363.981H329.159C329.381 363.981 329.562 363.779 329.562 363.531V362.351C329.562 362.103 329.381 361.902 329.159 361.902Z" fill="#3F3D56"/>
<path d="M335.369 361.902H333.07C332.847 361.902 332.667 362.103 332.667 362.351V363.531C332.667 363.779 332.847 363.981 333.07 363.981H335.369C335.591 363.981 335.772 363.779 335.772 363.531V362.351C335.772 362.103 335.591 361.902 335.369 361.902Z" fill="#3F3D56"/>
<path d="M341.578 361.902H339.279C339.057 361.902 338.876 362.103 338.876 362.351V363.531C338.876 363.779 339.057 363.981 339.279 363.981H341.578C341.801 363.981 341.981 363.779 341.981 363.531V362.351C341.981 362.103 341.801 361.902 341.578 361.902Z" fill="#3F3D56"/>
<path d="M347.788 361.902H345.489C345.267 361.902 345.086 362.103 345.086 362.351V363.531C345.086 363.779 345.267 363.981 345.489 363.981H347.788C348.011 363.981 348.191 363.779 348.191 363.531V362.351C348.191 362.103 348.011 361.902 347.788 361.902Z" fill="#3F3D56"/>
<path d="M353.998 361.902H351.699C351.476 361.902 351.296 362.103 351.296 362.351V363.531C351.296 363.779 351.476 363.981 351.699 363.981H353.998C354.22 363.981 354.401 363.779 354.401 363.531V362.351C354.401 362.103 354.22 361.902 353.998 361.902Z" fill="#3F3D56"/>
<path d="M360.208 361.902H357.909C357.686 361.902 357.506 362.103 357.506 362.351V363.531C357.506 363.779 357.686 363.981 357.909 363.981H360.208C360.43 363.981 360.611 363.779 360.611 363.531V362.351C360.611 362.103 360.43 361.902 360.208 361.902Z" fill="#3F3D56"/>
<path d="M366.417 361.902H364.118C363.896 361.902 363.715 362.103 363.715 362.351V363.531C363.715 363.779 363.896 363.981 364.118 363.981H366.417C366.64 363.981 366.82 363.779 366.82 363.531V362.351C366.82 362.103 366.64 361.902 366.417 361.902Z" fill="#3F3D56"/>
<path d="M372.627 361.902H370.328C370.106 361.902 369.925 362.103 369.925 362.351V363.531C369.925 363.779 370.106 363.981 370.328 363.981H372.627C372.85 363.981 373.03 363.779 373.03 363.531V362.351C373.03 362.103 372.85 361.902 372.627 361.902Z" fill="#3F3D56"/>
<path d="M378.837 361.902H376.538C376.315 361.902 376.135 362.103 376.135 362.351V363.531C376.135 363.779 376.315 363.981 376.538 363.981H378.837C379.059 363.981 379.24 363.779 379.24 363.531V362.351C379.24 362.103 379.059 361.902 378.837 361.902Z" fill="#3F3D56"/>
<path d="M385.047 361.902H382.748C382.525 361.902 382.345 362.103 382.345 362.351V363.531C382.345 363.779 382.525 363.981 382.748 363.981H385.047C385.269 363.981 385.45 363.779 385.45 363.531V362.351C385.45 362.103 385.269 361.902 385.047 361.902Z" fill="#3F3D56"/>
<path d="M343.441 366.059H319.408C319.186 366.059 319.005 366.26 319.005 366.509V367.688C319.005 367.936 319.186 368.138 319.408 368.138H343.441C343.664 368.138 343.844 367.936 343.844 367.688V366.509C343.844 366.26 343.664 366.059 343.441 366.059Z" fill="#3F3D56"/>
<path d="M412.29 198.645H253.742C253.577 198.641 253.42 198.565 253.304 198.434C253.189 198.302 253.124 198.125 253.124 197.941C253.124 197.757 253.189 197.58 253.304 197.449C253.42 197.317 253.577 197.242 253.742 197.238H412.29C412.455 197.242 412.612 197.317 412.728 197.449C412.843 197.58 412.908 197.757 412.908 197.941C412.908 198.125 412.843 198.302 412.728 198.434C412.612 198.565 412.455 198.641 412.29 198.645Z" fill="#CACACA"/>
<path d="M264.534 193.646C266.575 193.646 268.229 191.758 268.229 189.431C268.229 187.103 266.575 185.216 264.534 185.216C262.493 185.216 260.839 187.103 260.839 189.431C260.839 191.758 262.493 193.646 264.534 193.646Z" fill="#3F3D56"/>
<path d="M277.299 193.646C279.339 193.646 280.994 191.758 280.994 189.431C280.994 187.103 279.339 185.216 277.299 185.216C275.258 185.216 273.604 187.103 273.604 189.431C273.604 191.758 275.258 193.646 277.299 193.646Z" fill="#3F3D56"/>
<path d="M290.064 193.646C292.104 193.646 293.759 191.758 293.759 189.431C293.759 187.103 292.104 185.216 290.064 185.216C288.023 185.216 286.369 187.103 286.369 189.431C286.369 191.758 288.023 193.646 290.064 193.646Z" fill="#3F3D56"/>
<path d="M404.605 186.261H395.537C395.358 186.265 395.186 186.347 395.061 186.49C394.935 186.634 394.864 186.826 394.864 187.027C394.864 187.227 394.935 187.42 395.061 187.563C395.186 187.706 395.358 187.789 395.537 187.793H404.605C404.784 187.789 404.956 187.706 405.081 187.563C405.207 187.42 405.278 187.227 405.278 187.027C405.278 186.826 405.207 186.634 405.081 186.49C404.956 186.347 404.784 186.265 404.605 186.261Z" fill="#3F3D56"/>
<path d="M404.605 189.136H395.537C395.358 189.14 395.186 189.223 395.061 189.366C394.935 189.509 394.864 189.702 394.864 189.902C394.864 190.103 394.935 190.295 395.061 190.439C395.186 190.582 395.358 190.664 395.537 190.668H404.605C404.784 190.664 404.956 190.582 405.081 190.439C405.207 190.295 405.278 190.103 405.278 189.902C405.278 189.702 405.207 189.509 405.081 189.366C404.956 189.223 404.784 189.14 404.605 189.136Z" fill="#3F3D56"/>
<path d="M404.605 192.008H395.537C395.358 192.012 395.186 192.094 395.061 192.238C394.935 192.381 394.864 192.573 394.864 192.774C394.864 192.974 394.935 193.167 395.061 193.31C395.186 193.454 395.358 193.536 395.537 193.54H404.605C404.784 193.536 404.956 193.454 405.081 193.31C405.207 193.167 405.278 192.974 405.278 192.774C405.278 192.573 405.207 192.381 405.081 192.238C404.956 192.094 404.784 192.012 404.605 192.008Z" fill="#3F3D56"/>
<path d="M345.681 239.745H325.869C324.381 239.745 323.175 241.091 323.175 242.752V242.752C323.175 244.412 324.381 245.758 325.869 245.758H345.681C347.169 245.758 348.375 244.412 348.375 242.752V242.752C348.375 241.091 347.169 239.745 345.681 239.745Z" fill="#6DB6DA"/>
<path d="M358.479 251.771H313.071C311.583 251.771 310.376 253.117 310.376 254.777V254.777C310.376 256.438 311.583 257.784 313.071 257.784H358.479C359.967 257.784 361.173 256.438 361.173 254.777C361.173 253.117 359.967 251.771 358.479 251.771Z" fill="#E6E6E6"/>
<path d="M358.479 263.796H313.071C311.583 263.796 310.376 265.142 310.376 266.803C310.376 268.463 311.583 269.809 313.071 269.809H358.479C359.967 269.809 361.173 268.463 361.173 266.803C361.173 265.142 359.967 263.796 358.479 263.796Z" fill="#E6E6E6"/>
<path d="M255.29 378.417H205.763C204.012 378.417 202.332 379.193 201.094 380.575C199.855 381.956 199.16 383.831 199.16 385.785C199.16 387.739 199.855 389.613 201.094 390.995C202.332 392.377 204.012 393.153 205.763 393.153H223.923V450.257H237.13V393.153H255.29C257.041 393.153 258.721 392.377 259.959 390.995C261.197 389.613 261.893 387.739 261.893 385.785C261.893 383.831 261.197 381.956 259.959 380.575C258.721 379.193 257.041 378.417 255.29 378.417Z" fill="#3F3D56"/>
<path d="M287.978 481.883H155.509C142.667 481.83 130.27 476.625 120.583 467.216C110.897 457.808 104.567 444.826 102.75 430.64L98.0605 411.395C88.355 371.513 73.5717 333.392 54.1624 298.196C45.2911 282.121 40.7251 266.56 51.096 251.578C51.1843 251.45 51.2712 251.325 51.3565 251.201C59.6746 239.12 101.077 236.505 114.573 235.996C115.107 235.976 115.642 235.966 116.179 235.966H198.574C199.111 235.966 199.646 235.976 200.179 235.996C207.455 236.233 214.538 238.663 220.676 243.029C226.814 247.394 231.778 253.532 235.043 260.792C238.526 268.203 240.146 276.529 239.731 284.885C239.316 293.241 236.881 301.315 232.685 308.252C203.742 356.764 194.881 387.182 203.953 406.881C212.729 425.935 239.629 435.677 288.609 437.538C301.772 438.038 307.813 449.475 307.855 459.889C307.896 470.033 302.088 481.234 289.239 481.853C288.822 481.873 288.401 481.883 287.978 481.883Z" fill="#3F3D56"/>
<path d="M178.012 613.13H227.539C229.29 613.13 230.97 612.354 232.208 610.972C233.447 609.59 234.142 607.716 234.142 605.762C234.142 603.808 233.447 601.933 232.208 600.552C230.97 599.17 229.29 598.393 227.539 598.393H209.379V474.054H196.172V598.393H178.012C176.261 598.393 174.581 599.17 173.343 600.552C172.104 601.933 171.409 603.808 171.409 605.762C171.409 607.716 172.104 609.59 173.343 610.972C174.581 612.354 176.261 613.13 178.012 613.13Z" fill="#3F3D56"/>
<path d="M174.057 240.582L175.095 247.621C175.586 251.035 177.365 275.147 176.047 278.024C175.931 272.653 166.967 264.208 161.159 266.136L152.045 268.396L146.387 269.8L141.783 270.927L128.403 274.189C128.38 274.015 128.363 273.831 128.34 273.658C128.308 273.439 128.276 273.221 128.237 273.004C127.988 271.604 127.533 270.26 126.892 269.025C126.824 270.679 126.386 272.288 125.619 273.706C125.598 273.743 125.579 273.781 125.564 273.822C125.326 274.251 125.064 274.662 124.779 275.054C124.766 275.064 124.754 275.076 124.744 275.09C124.744 275.09 121.994 226.192 122.282 225.741C122.493 225.42 122.706 225.109 122.928 224.804C123.148 224.49 123.362 224.188 123.593 223.881C123.622 223.852 123.647 223.818 123.667 223.78C124.312 222.928 124.995 222.113 125.713 221.338C125.924 221.111 126.143 220.883 126.363 220.654C129.71 217.198 133.709 214.624 138.066 213.122C138.557 212.953 139.068 212.799 139.587 212.643C140.1 212.497 140.622 212.359 141.148 212.239L141.326 212.199C141.577 212.141 141.837 212.091 142.089 212.043C142.406 211.98 142.725 211.926 143.037 211.883C147.091 211.232 151.221 211.491 155.183 212.645C155.191 212.643 155.193 212.652 155.201 212.65C158.509 213.615 161.653 215.177 164.508 217.275C169.447 220.914 171.37 226.849 172.735 233.513C173.214 235.801 173.617 238.181 174.057 240.582Z" fill="#2F2E41"/>
<path d="M222.839 563.002L231.371 568.174L253.956 533.329L241.363 525.697L222.839 563.002Z" fill="#FFB6B6"/>
<path d="M226.945 550.586L242.434 555.998L239.969 563.238L250.589 580.438C251.114 581.288 251.382 582.302 251.353 583.333C251.325 584.365 251.001 585.358 250.431 586.17C249.86 586.982 249.072 587.569 248.181 587.845C247.29 588.121 246.343 588.073 245.479 587.706L227.448 580.063L226.779 571.583L223.127 578.231L216.329 575.349L226.945 550.586Z" fill="#2F2E41"/>
<path d="M271.165 407.153C269.803 407.523 268.386 407.555 267.011 407.248C265.637 406.94 264.34 406.3 263.212 405.373C262.083 404.445 261.151 403.253 260.48 401.88C259.809 400.507 259.416 398.986 259.329 397.425L186.557 368.213L199.912 355.246L268.983 385.932C271.343 385.942 273.617 386.918 275.375 388.674C277.133 390.43 278.253 392.845 278.522 395.461C278.791 398.077 278.19 400.712 276.835 402.867C275.479 405.021 273.462 406.547 271.165 407.153Z" fill="#FFB6B6"/>
<path d="M166.227 295.845C166.227 295.845 153.971 296.147 152.881 311.76C151.791 327.373 178.535 365.992 182.678 372.361C186.822 378.729 232.846 386.568 232.846 386.568L248.491 373.894C232.052 362.008 217.049 352.895 206.98 353.305L166.227 295.845Z" fill="#6DB6DA"/>
<path d="M151.195 364.736L154.182 379.055C154.182 379.055 154.211 392.258 156.307 394.692C158.388 397.115 204.146 392.25 204.146 392.25C204.146 392.25 199.294 370.974 199.359 354.876L151.195 364.736Z" fill="#FFB6B6"/>
<path d="M247.861 547.887L231.352 537.756C231.038 513.786 243.959 481.348 259.285 447.372C225.01 453.949 192.675 456.057 164.706 448.1C160.115 446.747 156.184 443.432 153.765 438.873C151.346 434.313 150.632 428.874 151.777 423.731C151.886 423.226 152.012 422.727 152.155 422.233C155.502 410.837 147.997 403.694 154.9 391.161C173.057 384.242 190.305 382.288 206.077 388.398L215.96 412.779L264.944 405.706C267.31 405.39 269.71 405.6 272.003 406.324C274.297 407.048 276.439 408.271 278.307 409.922C280.175 411.574 281.731 413.622 282.886 415.949C284.042 418.275 284.773 420.833 285.038 423.476C285.104 424.069 285.147 424.665 285.167 425.263C275.262 477.074 264.156 523.693 247.861 547.887Z" fill="#2F2E41"/>
<path d="M153.464 265.792C164.543 263.262 171.686 251.191 169.419 238.829C167.152 226.468 156.333 218.497 145.255 221.027C134.176 223.556 127.033 235.627 129.3 247.989C131.567 260.351 142.385 268.321 153.464 265.792Z" fill="#FFB6B6"/>
<path d="M144.546 274.085L163.416 272.842C164.212 272.789 165.003 273.015 165.678 273.488C166.353 273.961 166.88 274.657 167.184 275.479L172.516 289.904L194.68 310.344C194.68 310.344 203.455 322.803 203.475 338.895C203.495 354.986 206.588 392.232 206.588 392.232C206.588 392.232 193.782 372.118 185.877 377.467C184.532 378.378 184.059 380.239 182.651 381.179C181.948 381.649 180.325 381.193 179.615 381.663C168.723 388.877 157.363 395.926 156.302 394.69C154.218 392.264 151.689 379.864 151.689 379.864L134.416 309.048C133.48 305.322 133.294 301.411 133.872 297.595C134.449 293.78 135.777 290.154 137.759 286.978C138.965 285.083 140.23 283.672 141.405 283.439C144.043 282.812 142.64 276.214 144.546 274.085Z" fill="#6DB6DA"/>
<path d="M305.069 592.999L313.035 586.82L294.99 548.833L283.234 557.953L305.069 592.999Z" fill="#FFB6B6"/>
<path d="M306.273 567.51L293.789 579.961C273.939 555.282 258.933 520.669 246.216 481.362C212.897 470.473 187.769 452.913 165.833 432.062C158.392 425.036 152.813 416.01 159.16 407.451C159.456 407.051 159.766 406.664 160.089 406.29C167.583 397.697 186.586 399.335 197.717 391.462L222.58 421.116L221.016 429.066L267.717 446.717C269.964 447.596 272.033 448.963 273.805 450.738C275.576 452.513 277.015 454.662 278.038 457.061C279.062 459.46 279.649 462.062 279.767 464.715C279.885 467.369 279.531 470.022 278.725 472.522C278.55 473.087 278.354 473.643 278.136 474.19L306.273 567.51Z" fill="#2F2E41"/>
<path d="M300.425 590.494L313.176 579.29L317.138 585.649L335.857 585.586C336.782 585.582 337.683 585.909 338.429 586.518C339.176 587.126 339.728 587.985 340.006 588.969C340.284 589.953 340.273 591.011 339.974 591.987C339.675 592.963 339.105 593.807 338.346 594.396L322.508 606.681L315.859 602.507L318.712 609.625L312.741 614.256L300.425 590.494Z" fill="#2F2E41"/>
<path d="M172.412 452.553C171.121 451.942 169.967 451.023 169.03 449.86C168.092 448.698 167.395 447.32 166.987 445.824C166.578 444.328 166.469 442.75 166.666 441.202C166.863 439.654 167.362 438.172 168.127 436.862L125.407 364.928L143.06 363.431L182.023 434.08C183.91 435.661 185.212 437.96 185.681 440.54C186.151 443.12 185.756 445.803 184.571 448.08C183.386 450.357 181.494 452.07 179.253 452.895C177.012 453.719 174.578 453.598 172.412 452.553Z" fill="#FFB6B6"/>
<path d="M147.849 293.341C147.849 293.341 137.859 285.413 128.626 297.208C119.393 309.002 120.164 357.799 120.077 365.669C120.05 368.133 123.239 373.45 127.632 379.591C129.605 382.349 131.82 385.272 134.096 388.178C135.413 389.86 134.278 393.36 135.601 394.995C136.916 396.621 140.689 396.381 141.94 397.89C147.878 405.051 152.703 410.502 152.703 410.502L172.035 410.768C172.253 394.732 162.411 380.419 149.768 366.585L147.849 293.341Z" fill="#6DB6DA"/>
<path d="M174.95 232.311C174.192 232.729 173.457 233.132 172.735 233.513C169.838 235.102 166.844 236.461 163.775 237.58C163.264 236.03 162.485 234.607 161.482 233.393C161.739 235.07 161.608 236.792 161.102 238.397C156.457 239.68 151.581 239.47 147.039 237.791C150.009 243.928 152.204 256.862 152.045 268.396C151.975 274.494 151.235 280.2 149.62 284.302L147.544 277.255C147.351 274.737 146.964 272.243 146.387 269.8C144.995 262.945 143.696 267.528 141.783 270.927L128.403 274.188C128.38 274.015 128.363 273.831 128.34 273.658C128.308 273.439 128.276 273.221 128.237 273.004C127.988 271.604 127.533 270.259 126.892 269.024C126.824 270.679 126.386 272.288 125.619 273.705C125.598 273.742 125.579 273.781 125.564 273.821C125.326 274.25 125.064 274.662 124.779 275.053C124.766 275.064 124.754 275.076 124.744 275.09C116.105 276.379 110.05 226.675 122.284 225.75C122.64 225.723 122.707 225.117 122.928 224.804C123.148 224.49 123.362 224.187 123.593 223.881C123.622 223.852 123.647 223.818 123.667 223.779C124.321 222.934 124.997 222.122 125.713 221.338C125.924 221.111 126.143 220.882 126.363 220.654C129.72 217.215 133.717 214.646 138.068 213.13C138.559 212.962 139.068 212.798 139.587 212.642C140.1 212.497 140.622 212.359 141.148 212.239L141.326 212.198C141.577 212.141 141.837 212.091 142.089 212.043C142.406 211.98 142.725 211.926 143.037 211.883C144.21 212.542 145.213 213.523 145.953 214.733L154.501 212.782C154.727 212.73 154.955 212.687 155.185 212.654L155.201 212.65C165.873 210.655 172.734 220.229 174.95 232.311Z" fill="#2F2E41"/>
<path d="M128.363 223.524C126.532 224.998 124.607 226.517 122.374 226.882C120.14 227.247 117.526 226.042 116.907 223.62C116.152 220.658 118.549 217.961 120.703 216.037L127.534 209.933C128.785 208.695 130.197 207.676 131.723 206.911C132.489 206.535 133.321 206.356 134.157 206.387C134.994 206.418 135.813 206.659 136.555 207.092C137.289 207.645 137.884 208.398 138.284 209.281C138.683 210.163 138.873 211.145 138.836 212.133C138.738 214.112 138.153 216.023 137.144 217.655C135.876 219.861 134.221 221.757 132.279 223.23C130.337 224.703 128.147 225.723 125.843 226.227" fill="#2F2E41"/>
<path d="M180.174 382.101H130.648C128.897 382.101 127.217 382.877 125.979 384.259C124.74 385.641 124.044 387.515 124.044 389.469C124.044 391.423 124.74 393.297 125.979 394.679C127.217 396.061 128.897 396.837 130.648 396.837H148.808V453.941H162.015V396.837H180.174C181.926 396.837 183.605 396.061 184.844 394.679C186.082 393.297 186.778 391.423 186.778 389.469C186.778 387.515 186.082 385.641 184.844 384.259C183.605 382.877 181.926 382.101 180.174 382.101Z" fill="#3F3D56"/>
<path d="M363.145 615.796L0.982927 616.079C0.722755 616.078 0.473502 615.962 0.289799 615.757C0.106095 615.551 0.00292969 615.273 0.00292969 614.982C0.00292969 614.692 0.106095 614.413 0.289799 614.208C0.473502 614.002 0.722755 613.886 0.982927 613.886L363.145 613.603C363.405 613.603 363.655 613.719 363.838 613.925C364.022 614.13 364.125 614.409 364.125 614.699C364.125 614.989 364.022 615.268 363.838 615.474C363.655 615.679 363.405 615.795 363.145 615.796Z" fill="#CACACA"/>
<path d="M468.538 493.469L476.6 503.272L514.326 473.239L502.426 458.77L468.538 493.469Z" fill="#A0616A"/>
<path d="M485.225 507.343V507.334L484.408 497.543L484.036 497.35L481.865 496.198L471.622 490.792L471.407 490.534L469.352 488.029L457.969 499.689L473.388 518.441L483.962 531.299L484.317 530.931C485.766 529.449 486.939 527.664 487.769 525.676C488.599 523.688 489.07 521.538 489.154 519.347C489.238 517.156 488.935 514.968 488.26 512.908C487.586 510.849 486.555 508.957 485.225 507.343H485.225Z" fill="#2F2E41"/>
<path d="M426.768 591.268L438.177 595.135L456.976 547.869L440.136 542.162L426.768 591.268Z" fill="#A0616A"/>
<path d="M456.31 601.85C455.39 599.912 454.134 598.198 452.615 596.806C451.096 595.415 449.344 594.374 447.461 593.745L442.285 585.778L441.881 585.815L428.203 587.215L427.898 587.114L424.992 586.128L420.502 602.624L457.292 615.095L457.432 614.57C458.006 612.472 458.203 610.268 458.01 608.085C457.817 605.902 457.239 603.783 456.31 601.85Z" fill="#2F2E41"/>
<path d="M520.851 343.792C520.851 343.792 593.697 422.272 547.645 446.563H533.411C533.411 446.563 529.134 429.607 519.341 415.308C517.997 413.344 512.959 413.743 511.559 411.829C503.017 400.144 493.755 390.109 487.359 390.507L488.889 444.731L491.366 464.073C492.666 474.071 455.969 561.374 455.969 561.374L432.903 551.259C432.903 551.259 456.935 479.352 457.216 468.986L437.958 355.004L520.851 343.792Z" fill="#2F2E41"/>
<path d="M526.926 347.663C526.555 348.254 526.07 348.745 525.506 349.1C524.578 349.685 523.572 350.102 522.526 350.334C506.125 354.488 452.545 363.1 438.637 358.992C436.928 358.494 435.814 357.794 435.451 356.873C434.287 353.963 434.435 341.667 435.12 326.82C435.244 324.038 437.993 321.027 438.158 318.116C438.274 315.933 435.805 313.879 435.938 311.66C436.846 296.647 438.018 281.348 438.802 271.678C439.297 265.461 439.636 261.574 439.636 261.574L431.175 202.047L431.571 201.32L432.017 201.071L459.298 186.003L460.783 181.766C461.214 180.546 461.962 179.498 462.932 178.758C463.902 178.017 465.048 177.618 466.223 177.612L484.193 177.529C485.125 177.524 486.045 177.766 486.876 178.237C487.708 178.708 488.426 179.394 488.972 180.237L493.842 187.762L526.035 210.788L525.911 211.212L510.805 262.504L510.731 266.501V266.511L510.169 298.655L511.73 303.011L509.971 310.158C509.971 310.158 510.78 318.512 515.114 324.72C519.043 330.357 524.045 336.233 526.307 341.004V341.013C527.562 343.647 527.983 345.931 526.926 347.663Z" fill="#6DB6DA"/>
<path d="M551.143 441.901L547.25 447.391C547.25 447.391 511.439 475.346 510.21 477.959L504.55 483.934L490.856 467.601L497.978 457.642C503.677 449.671 511.039 443.382 519.422 439.323L530.336 428.519L551.143 441.901Z" fill="#2F2E41"/>
<path d="M528.389 363.441L521.868 293.009L520.146 264.022L538.399 260.339C538.399 260.339 537.676 281.066 540.067 292.76C542.427 304.3 540.38 361.894 540.234 363.435C541.575 364.772 542.52 366.532 542.944 368.482C543.369 370.432 543.253 372.479 542.612 374.354C541.97 376.229 540.834 377.842 539.354 378.98C537.873 380.119 536.117 380.729 534.319 380.73C532.521 380.731 530.765 380.123 529.283 378.986C527.801 377.849 526.664 376.237 526.021 374.363C525.378 372.489 525.26 370.441 525.683 368.491C526.106 366.541 527.05 364.78 528.389 363.441Z" fill="#A0616A"/>
<path d="M546.194 307.604L522.733 313.023L520.681 303.897L518.29 301.067L513.512 273.138L506.656 256.777L508.438 200.83L525.85 211.134L525.871 211.152C528.534 214.378 530.37 218.995 533.421 223.627C543.038 238.224 544.104 273.694 543.813 293.123C543.809 293.442 544.096 293.779 544.441 294.133C546.079 295.81 547.147 298.066 547.466 300.52C547.786 302.975 547.336 305.477 546.194 307.604V307.604Z" fill="#6DB6DA"/>
<path d="M422.151 366.204L428.672 295.772L430.393 266.785L412.141 263.102C412.141 263.102 412.864 283.829 410.473 295.523C408.113 307.063 410.16 364.658 410.306 366.198C408.965 367.535 408.02 369.295 407.596 371.245C407.171 373.195 407.287 375.242 407.928 377.117C408.57 378.992 409.706 380.605 411.186 381.743C412.667 382.882 414.423 383.492 416.221 383.493C418.019 383.494 419.775 382.886 421.257 381.749C422.739 380.612 423.876 379 424.519 377.126C425.162 375.252 425.279 373.204 424.857 371.254C424.434 369.304 423.49 367.543 422.151 366.204Z" fill="#A0616A"/>
<path d="M443.887 259.539L438.802 271.678L437.027 275.905L432.248 303.831L429.862 306.659L427.807 315.786L426.841 315.565L409.424 311.54L404.348 310.37C403.204 308.243 402.753 305.741 403.072 303.285C403.391 300.83 404.46 298.573 406.098 296.896C406.445 296.546 406.733 296.205 406.725 295.883C406.436 276.458 407.501 240.989 417.118 226.391C420.172 221.758 422.004 217.143 424.67 213.92C424.679 213.911 424.679 213.901 424.687 213.901L431.175 202.048L431.571 201.32L432.017 201.071L443.887 259.539Z" fill="#6DB6DA"/>
<path d="M474.689 171.821C487.894 171.821 498.599 159.877 498.599 145.143C498.599 130.409 487.894 118.464 474.689 118.464C461.484 118.464 450.78 130.409 450.78 145.143C450.78 159.877 461.484 171.821 474.689 171.821Z" fill="#A0616A"/>
<path d="M501.568 133.44C501.486 128.89 501.024 123.069 498.168 118.427C495.757 114.522 490.895 111.427 486.364 112.974C486.415 111.963 486.213 110.956 485.782 110.065C485.351 109.174 484.706 108.434 483.921 107.927C482.204 106.757 480.14 106.545 478.316 106.352C473.718 105.873 468.955 105.376 464.3 106.361C459.075 107.466 454.799 110.469 452.578 114.604L452.529 114.733L452.075 117.183C452.014 117.512 451.891 117.822 451.713 118.092C451.535 118.363 451.306 118.587 451.043 118.749C450.78 118.914 450.487 119.012 450.186 119.036C449.885 119.06 449.583 119.009 449.301 118.887C448.993 118.758 448.66 118.721 448.336 118.78C448.011 118.839 447.705 118.991 447.45 119.222C447.194 119.452 446.996 119.753 446.876 120.095C446.757 120.437 446.719 120.808 446.767 121.172L446.891 122.148L445.579 121.871C445.249 121.8 444.909 121.829 444.592 121.953C444.276 122.078 443.995 122.295 443.779 122.581C443.563 122.867 443.419 123.213 443.362 123.582C443.306 123.951 443.339 124.33 443.457 124.681L443.821 125.795C443.549 125.799 443.282 125.864 443.034 125.986C442.785 126.108 442.562 126.284 442.376 126.504C442.111 126.825 441.944 127.232 441.9 127.666C441.855 128.1 441.935 128.538 442.128 128.917C443.599 131.719 445.684 134.058 448.187 135.715C449.313 136.471 450.527 137.051 451.794 137.437C452.058 137.52 452.331 137.594 452.611 137.658C462.746 140.095 473.194 140.445 483.442 138.69C482.838 140.945 482.606 143.304 482.757 145.653C483.087 148.591 484.63 151.013 486.694 151.824C487.161 152 487.642 152.13 488.13 152.21C488.598 152.295 489.059 152.421 489.509 152.588C490.173 152.859 490.76 153.322 491.213 153.928C491.665 154.534 491.966 155.263 492.085 156.04C492.204 156.818 492.137 157.617 491.89 158.356C491.644 159.096 491.226 159.749 490.681 160.251C490.681 160.251 492.843 162.25 493.116 162.148C494.179 161.624 495.068 160.742 495.658 159.625C499.777 153.012 501.767 144.207 501.568 133.44Z" fill="#2F2E41"/>
</g>
<defs>
<clipPath id="clip0_253_449">
<rect width="639" height="617" fill="white"/>
</clipPath>
</defs>
</svg>
