<svg width="657" height="544" viewBox="0 0 657 544" fill="none" xmlns="http://www.w3.org/2000/svg">
<g clip-path="url(#clip0_625_2)">
<path d="M382.702 95.9008C395.015 95.9008 404.997 84.5368 404.997 70.5185C404.997 56.5003 395.015 45.1362 382.702 45.1362C370.388 45.1362 360.406 56.5003 360.406 70.5185C360.406 84.5368 370.388 95.9008 382.702 95.9008Z" fill="#F2F2F2"/>
<path d="M555.653 472.603C588.793 443.867 604.621 395.578 594.712 349.514C594.465 348.37 594.206 347.228 593.932 346.088C587.363 318.745 571.11 292.758 547.422 284.021C527.533 276.685 505.822 282.327 485.073 279.409C444.34 273.683 412.761 236.162 390.541 196.877C368.321 157.592 351.244 113.619 321.718 81.1636C273.05 27.6671 193.66 16.1492 133.318 50.9715C72.9768 85.7938 34.5399 163.05 36.1791 240.045C37.8184 317.041 77.9681 390.654 136.275 429.71C157.695 444.058 182.469 454.222 207.124 450.666C228.517 447.579 247.955 434.493 269.248 430.608C302.724 424.5 335.987 441.731 364.942 461.811C393.896 481.891 421.864 505.691 454.767 515C486.716 524.039 526.297 498.059 555.653 472.603Z" fill="#F2F2F2"/>
<path d="M508.04 52.5883C507.313 52.037 506.579 51.5141 505.852 50.9818C484.853 35.6918 462.344 23.2703 438.793 13.9741L433.332 99.7391H398.712V1.45445C396.533 0.941113 394.337 0.456298 392.141 0V99.7391H351C328.352 99.7391 306.631 89.4963 290.616 71.2641C274.601 53.0318 265.604 28.3036 265.604 2.51925V2.51917C263.4 3.06102 261.212 3.6409 259.024 4.25881V99.7391H225.515L220.313 17.9572C196.11 28.5246 173.133 42.4212 151.893 59.3378C151.525 59.623 151.158 59.9176 150.799 60.2028C148.954 61.6763 147.133 63.1783 145.321 64.6993V391.893H244.078L242.332 364.373L232.73 213.272H426.109L416.506 364.373L414.761 391.893H512.424V55.8965C510.971 54.7748 509.51 53.6721 508.04 52.5883ZM259.024 188.318H231.143L225.991 107.23H259.024V188.318ZM392.141 188.318H345.314V186.711C345.314 185.939 345.18 185.174 344.92 184.461C344.66 183.748 344.28 183.1 343.799 182.554C343.319 182.008 342.75 181.576 342.122 181.281C341.495 180.986 340.823 180.835 340.145 180.837H319.788C319.11 180.836 318.439 180.988 317.813 181.283C317.186 181.578 316.617 182.011 316.138 182.557C315.659 183.102 315.279 183.75 315.02 184.463C314.76 185.176 314.627 185.94 314.627 186.711V188.318H265.604V107.23H392.141V188.318ZM398.713 188.318V107.23H432.856L427.704 188.318H398.713Z" fill="#3F3D56"/>
<path d="M0 412.846C7.25392 422.631 15.0998 431.827 23.4804 440.366L633.52 441.317C641.9 432.777 649.746 423.582 657 413.796L0 412.846Z" fill="#3F3D56"/>
<path d="M413.688 324.724V406.196C413.688 407.234 414.051 408.23 414.696 408.964C415.341 409.698 416.215 410.111 417.127 410.112H523.177C524.089 410.111 524.963 409.698 525.608 408.964C526.253 408.23 526.615 407.234 526.616 406.196V324.724C526.614 323.687 526.251 322.692 525.606 321.959C524.961 321.226 524.088 320.814 523.177 320.812H417.127C416.216 320.814 415.342 321.226 414.697 321.959C414.053 322.692 413.69 323.687 413.688 324.724Z" fill="#3F3D56"/>
<path d="M416.175 325.738V405.191C416.176 405.746 416.37 406.277 416.715 406.67C417.059 407.062 417.526 407.283 418.013 407.284H522.294C522.781 407.283 523.248 407.062 523.593 406.67C523.937 406.277 524.131 405.746 524.132 405.191V325.738C524.132 325.182 523.938 324.65 523.594 324.256C523.249 323.863 522.782 323.642 522.294 323.641H418.013C417.526 323.642 417.058 323.863 416.714 324.256C416.369 324.65 416.175 325.182 416.175 325.738Z" fill="#A5E4F2"/>
<path d="M411.469 422.085C411.664 422.362 411.911 422.586 412.192 422.739C412.473 422.892 412.781 422.971 413.092 422.969H526.646C526.957 422.968 527.263 422.889 527.544 422.737C527.824 422.585 528.071 422.363 528.267 422.088C528.462 421.814 528.602 421.493 528.675 421.149C528.748 420.806 528.753 420.448 528.689 420.102L526.926 410.57C526.853 410.181 526.696 409.819 526.469 409.518C526.241 409.216 525.951 408.983 525.625 408.842C525.389 408.736 525.137 408.682 524.884 408.683H414.848C414.594 408.682 414.343 408.736 414.106 408.842C413.78 408.983 413.49 409.216 413.263 409.518C413.036 409.819 412.878 410.181 412.805 410.57L411.043 420.102C410.98 420.448 410.986 420.805 411.059 421.148C411.133 421.491 411.273 421.811 411.469 422.085Z" fill="#2F2E41"/>
<path d="M520.987 412.788H523.67C523.895 412.788 524.077 412.58 524.077 412.324V410.863C524.077 410.607 523.895 410.399 523.67 410.399H520.987C520.762 410.399 520.58 410.607 520.58 410.863V412.324C520.58 412.58 520.762 412.788 520.987 412.788Z" fill="#3F3D56"/>
<path d="M513.993 412.788H516.675C516.9 412.788 517.083 412.58 517.083 412.324V410.863C517.083 410.607 516.9 410.399 516.675 410.399H513.993C513.768 410.399 513.585 410.607 513.585 410.863V412.324C513.585 412.58 513.768 412.788 513.993 412.788Z" fill="#3F3D56"/>
<path d="M506.998 412.788H509.68C509.905 412.788 510.087 412.58 510.087 412.324V410.863C510.087 410.607 509.905 410.399 509.68 410.399H506.998C506.773 410.399 506.59 410.607 506.59 410.863V412.324C506.59 412.58 506.773 412.788 506.998 412.788Z" fill="#3F3D56"/>
<path d="M500.003 412.788H502.685C502.91 412.788 503.093 412.58 503.093 412.324V410.863C503.093 410.607 502.91 410.399 502.685 410.399H500.003C499.778 410.399 499.595 410.607 499.595 410.863V412.324C499.595 412.58 499.778 412.788 500.003 412.788Z" fill="#3F3D56"/>
<path d="M493.008 412.788H495.69C495.915 412.788 496.098 412.58 496.098 412.324V410.863C496.098 410.607 495.915 410.399 495.69 410.399H493.008C492.783 410.399 492.6 410.607 492.6 410.863V412.324C492.6 412.58 492.783 412.788 493.008 412.788Z" fill="#3F3D56"/>
<path d="M486.013 412.788H488.695C488.92 412.788 489.103 412.58 489.103 412.324V410.863C489.103 410.607 488.92 410.399 488.695 410.399H486.013C485.788 410.399 485.606 410.607 485.606 410.863V412.324C485.606 412.58 485.788 412.788 486.013 412.788Z" fill="#3F3D56"/>
<path d="M479.018 412.788H481.701C481.926 412.788 482.108 412.58 482.108 412.324V410.863C482.108 410.607 481.926 410.399 481.701 410.399H479.018C478.793 410.399 478.611 410.607 478.611 410.863V412.324C478.611 412.58 478.793 412.788 479.018 412.788Z" fill="#3F3D56"/>
<path d="M472.023 412.788H474.706C474.931 412.788 475.113 412.58 475.113 412.324V410.863C475.113 410.607 474.931 410.399 474.706 410.399H472.023C471.798 410.399 471.616 410.607 471.616 410.863V412.324C471.616 412.58 471.798 412.788 472.023 412.788Z" fill="#3F3D56"/>
<path d="M465.029 412.788H467.711C467.936 412.788 468.119 412.58 468.119 412.324V410.863C468.119 410.607 467.936 410.399 467.711 410.399H465.029C464.804 410.399 464.621 410.607 464.621 410.863V412.324C464.621 412.58 464.804 412.788 465.029 412.788Z" fill="#3F3D56"/>
<path d="M458.034 412.788H460.716C460.941 412.788 461.124 412.58 461.124 412.324V410.863C461.124 410.607 460.941 410.399 460.716 410.399H458.034C457.809 410.399 457.626 410.607 457.626 410.863V412.324C457.626 412.58 457.809 412.788 458.034 412.788Z" fill="#3F3D56"/>
<path d="M451.039 412.788H453.721C453.946 412.788 454.129 412.58 454.129 412.324V410.863C454.129 410.607 453.946 410.399 453.721 410.399H451.039C450.814 410.399 450.631 410.607 450.631 410.863V412.324C450.631 412.58 450.814 412.788 451.039 412.788Z" fill="#3F3D56"/>
<path d="M444.044 412.788H446.726C446.952 412.788 447.134 412.58 447.134 412.324V410.863C447.134 410.607 446.952 410.399 446.726 410.399H444.044C443.819 410.399 443.637 410.607 443.637 410.863V412.324C443.637 412.58 443.819 412.788 444.044 412.788Z" fill="#3F3D56"/>
<path d="M437.049 412.788H439.731C439.957 412.788 440.139 412.58 440.139 412.324V410.863C440.139 410.607 439.957 410.399 439.731 410.399H437.049C436.824 410.399 436.642 410.607 436.642 410.863V412.324C436.642 412.58 436.824 412.788 437.049 412.788Z" fill="#3F3D56"/>
<path d="M430.054 412.788H432.737C432.962 412.788 433.144 412.58 433.144 412.324V410.863C433.144 410.607 432.962 410.399 432.737 410.399H430.054C429.829 410.399 429.647 410.607 429.647 410.863V412.324C429.647 412.58 429.829 412.788 430.054 412.788Z" fill="#3F3D56"/>
<path d="M423.06 412.788H425.742C425.967 412.788 426.149 412.58 426.149 412.324V410.863C426.149 410.607 425.967 410.399 425.742 410.399H423.06C422.834 410.399 422.652 410.607 422.652 410.863V412.324C422.652 412.58 422.834 412.788 423.06 412.788Z" fill="#3F3D56"/>
<path d="M416.065 412.788H418.747C418.972 412.788 419.155 412.58 419.155 412.324V410.863C419.155 410.607 418.972 410.399 418.747 410.399H416.065C415.84 410.399 415.657 410.607 415.657 410.863V412.324C415.657 412.58 415.84 412.788 416.065 412.788Z" fill="#3F3D56"/>
<path d="M521.07 416.77H523.752C523.977 416.77 524.16 416.562 524.16 416.306V414.845C524.16 414.589 523.977 414.381 523.752 414.381H521.07C520.845 414.381 520.662 414.589 520.662 414.845V416.306C520.662 416.562 520.845 416.77 521.07 416.77Z" fill="#3F3D56"/>
<path d="M514.075 416.77H516.757C516.983 416.77 517.165 416.562 517.165 416.306V414.845C517.165 414.589 516.983 414.381 516.757 414.381H514.075C513.85 414.381 513.668 414.589 513.668 414.845V416.306C513.668 416.562 513.85 416.77 514.075 416.77Z" fill="#3F3D56"/>
<path d="M507.08 416.77H509.762C509.988 416.77 510.17 416.562 510.17 416.306V414.845C510.17 414.589 509.988 414.381 509.762 414.381H507.08C506.855 414.381 506.673 414.589 506.673 414.845V416.306C506.673 416.562 506.855 416.77 507.08 416.77Z" fill="#3F3D56"/>
<path d="M500.086 416.77H502.768C502.993 416.77 503.175 416.562 503.175 416.306V414.845C503.175 414.589 502.993 414.381 502.768 414.381H500.086C499.86 414.381 499.678 414.589 499.678 414.845V416.306C499.678 416.562 499.86 416.77 500.086 416.77Z" fill="#3F3D56"/>
<path d="M493.091 416.77H495.773C495.998 416.77 496.18 416.562 496.18 416.306V414.845C496.18 414.589 495.998 414.381 495.773 414.381H493.091C492.866 414.381 492.683 414.589 492.683 414.845V416.306C492.683 416.562 492.866 416.77 493.091 416.77Z" fill="#3F3D56"/>
<path d="M486.096 416.77H488.778C489.003 416.77 489.186 416.562 489.186 416.306V414.845C489.186 414.589 489.003 414.381 488.778 414.381H486.096C485.871 414.381 485.688 414.589 485.688 414.845V416.306C485.688 416.562 485.871 416.77 486.096 416.77Z" fill="#3F3D56"/>
<path d="M479.101 416.77H481.783C482.008 416.77 482.191 416.562 482.191 416.306V414.845C482.191 414.589 482.008 414.381 481.783 414.381H479.101C478.876 414.381 478.693 414.589 478.693 414.845V416.306C478.693 416.562 478.876 416.77 479.101 416.77Z" fill="#3F3D56"/>
<path d="M472.106 416.77H474.788C475.014 416.77 475.196 416.562 475.196 416.306V414.845C475.196 414.589 475.014 414.381 474.788 414.381H472.106C471.881 414.381 471.699 414.589 471.699 414.845V416.306C471.699 416.562 471.881 416.77 472.106 416.77Z" fill="#3F3D56"/>
<path d="M465.111 416.77H467.794C468.019 416.77 468.201 416.562 468.201 416.306V414.845C468.201 414.589 468.019 414.381 467.794 414.381H465.111C464.886 414.381 464.704 414.589 464.704 414.845V416.306C464.704 416.562 464.886 416.77 465.111 416.77Z" fill="#3F3D56"/>
<path d="M458.117 416.77H460.799C461.024 416.77 461.206 416.562 461.206 416.306V414.845C461.206 414.589 461.024 414.381 460.799 414.381H458.117C457.891 414.381 457.709 414.589 457.709 414.845V416.306C457.709 416.562 457.891 416.77 458.117 416.77Z" fill="#3F3D56"/>
<path d="M451.122 416.77H453.804C454.029 416.77 454.211 416.562 454.211 416.306V414.845C454.211 414.589 454.029 414.381 453.804 414.381H451.122C450.897 414.381 450.714 414.589 450.714 414.845V416.306C450.714 416.562 450.897 416.77 451.122 416.77Z" fill="#3F3D56"/>
<path d="M444.127 416.77H446.809C447.034 416.77 447.217 416.562 447.217 416.306V414.845C447.217 414.589 447.034 414.381 446.809 414.381H444.127C443.902 414.381 443.719 414.589 443.719 414.845V416.306C443.719 416.562 443.902 416.77 444.127 416.77Z" fill="#3F3D56"/>
<path d="M437.132 416.77H439.814C440.039 416.77 440.222 416.562 440.222 416.306V414.845C440.222 414.589 440.039 414.381 439.814 414.381H437.132C436.907 414.381 436.725 414.589 436.725 414.845V416.306C436.725 416.562 436.907 416.77 437.132 416.77Z" fill="#3F3D56"/>
<path d="M430.137 416.77H432.819C433.045 416.77 433.227 416.562 433.227 416.306V414.845C433.227 414.589 433.045 414.381 432.819 414.381H430.137C429.912 414.381 429.73 414.589 429.73 414.845V416.306C429.73 416.562 429.912 416.77 430.137 416.77Z" fill="#3F3D56"/>
<path d="M423.142 416.77H425.825C426.05 416.77 426.232 416.562 426.232 416.306V414.845C426.232 414.589 426.05 414.381 425.825 414.381H423.142C422.917 414.381 422.735 414.589 422.735 414.845V416.306C422.735 416.562 422.917 416.77 423.142 416.77Z" fill="#3F3D56"/>
<path d="M416.148 416.77H418.83C419.055 416.77 419.237 416.562 419.237 416.306V414.845C419.237 414.589 419.055 414.381 418.83 414.381H416.148C415.922 414.381 415.74 414.589 415.74 414.845V416.306C415.74 416.562 415.922 416.77 416.148 416.77Z" fill="#3F3D56"/>
<path d="M463.013 421.548H490.177C490.402 421.548 490.585 421.34 490.585 421.084V419.623C490.585 419.367 490.402 419.159 490.177 419.159H463.013C462.788 419.159 462.605 419.367 462.605 419.623V421.084C462.605 421.34 462.788 421.548 463.013 421.548Z" fill="#3F3D56"/>
<path d="M434.233 341.023H431.859C431.139 341.023 430.555 341.687 430.555 342.507C430.555 343.327 431.139 343.991 431.859 343.991H434.233C434.953 343.991 435.537 343.327 435.537 342.507C435.537 341.687 434.953 341.023 434.233 341.023Z" fill="white"/>
<path d="M461.39 341.023H459.016C458.296 341.023 457.712 341.687 457.712 342.507C457.712 343.327 458.296 343.991 459.016 343.991H461.39C462.11 343.991 462.694 343.327 462.694 342.507C462.694 341.687 462.11 341.023 461.39 341.023Z" fill="white"/>
<path d="M469.085 341.023H466.71C465.99 341.023 465.407 341.687 465.407 342.507C465.407 343.327 465.99 343.991 466.71 343.991H469.085C469.805 343.991 470.388 343.327 470.388 342.507C470.388 341.687 469.805 341.023 469.085 341.023Z" fill="white"/>
<path d="M454.004 340.775H439.246C438.526 340.775 437.942 341.44 437.942 342.259C437.942 343.079 438.526 343.743 439.246 343.743H454.004C454.723 343.743 455.307 343.079 455.307 342.259C455.307 341.44 454.723 340.775 454.004 340.775Z" fill="white"/>
<path d="M490.213 340.775H475.455C474.735 340.775 474.151 341.44 474.151 342.259C474.151 343.079 474.735 343.743 475.455 343.743H490.213C490.933 343.743 491.516 343.079 491.516 342.259C491.516 341.44 490.933 340.775 490.213 340.775Z" fill="white"/>
<path d="M441.475 347.722H439.101C438.381 347.722 437.797 348.386 437.797 349.206C437.797 350.025 438.381 350.69 439.101 350.69H441.475C442.195 350.69 442.779 350.025 442.779 349.206C442.779 348.386 442.195 347.722 441.475 347.722Z" fill="white"/>
<path d="M468.632 347.722H466.258C465.538 347.722 464.954 348.386 464.954 349.206C464.954 350.025 465.538 350.69 466.258 350.69H468.632C469.352 350.69 469.936 350.025 469.936 349.206C469.936 348.386 469.352 347.722 468.632 347.722Z" fill="white"/>
<path d="M476.327 347.722H473.952C473.232 347.722 472.649 348.386 472.649 349.206C472.649 350.025 473.232 350.69 473.952 350.69H476.327C477.047 350.69 477.63 350.025 477.63 349.206C477.63 348.386 477.047 347.722 476.327 347.722Z" fill="white"/>
<path d="M461.245 347.474H446.488C445.768 347.474 445.184 348.139 445.184 348.958C445.184 349.778 445.768 350.442 446.488 350.442H461.245C461.965 350.442 462.549 349.778 462.549 348.958C462.549 348.139 461.965 347.474 461.245 347.474Z" fill="white"/>
<path d="M497.455 347.474H482.697C481.977 347.474 481.393 348.139 481.393 348.958C481.393 349.778 481.977 350.442 482.697 350.442H497.455C498.175 350.442 498.758 349.778 498.758 348.958C498.758 348.139 498.175 347.474 497.455 347.474Z" fill="white"/>
<path d="M448.717 354.42H446.343C445.623 354.42 445.039 355.085 445.039 355.904C445.039 356.724 445.623 357.388 446.343 357.388H448.717C449.437 357.388 450.021 356.724 450.021 355.904C450.021 355.085 449.437 354.42 448.717 354.42Z" fill="white"/>
<path d="M475.874 354.42H473.5C472.78 354.42 472.196 355.085 472.196 355.904C472.196 356.724 472.78 357.388 473.5 357.388H475.874C476.594 357.388 477.178 356.724 477.178 355.904C477.178 355.085 476.594 354.42 475.874 354.42Z" fill="white"/>
<path d="M483.569 354.42H481.194C480.474 354.42 479.891 355.085 479.891 355.904C479.891 356.724 480.474 357.388 481.194 357.388H483.569C484.289 357.388 484.872 356.724 484.872 355.904C484.872 355.085 484.289 354.42 483.569 354.42Z" fill="white"/>
<path d="M468.487 354.173H453.729C453.009 354.173 452.426 354.837 452.426 355.657C452.426 356.476 453.009 357.141 453.729 357.141H468.487C469.207 357.141 469.791 356.476 469.791 355.657C469.791 354.837 469.207 354.173 468.487 354.173Z" fill="white"/>
<path d="M504.697 354.173H489.939C489.219 354.173 488.635 354.837 488.635 355.657C488.635 356.476 489.219 357.141 489.939 357.141H504.697C505.417 357.141 506 356.476 506 355.657C506 354.837 505.417 354.173 504.697 354.173Z" fill="white"/>
<path d="M455.959 361.119H453.585C452.865 361.119 452.281 361.784 452.281 362.603C452.281 363.423 452.865 364.087 453.585 364.087H455.959C456.679 364.087 457.263 363.423 457.263 362.603C457.263 361.784 456.679 361.119 455.959 361.119Z" fill="white"/>
<path d="M483.116 361.119H480.742C480.022 361.119 479.438 361.784 479.438 362.603C479.438 363.423 480.022 364.087 480.742 364.087H483.116C483.836 364.087 484.419 363.423 484.419 362.603C484.419 361.784 483.836 361.119 483.116 361.119Z" fill="white"/>
<path d="M490.81 361.119H488.436C487.716 361.119 487.132 361.784 487.132 362.603C487.132 363.423 487.716 364.087 488.436 364.087H490.81C491.53 364.087 492.114 363.423 492.114 362.603C492.114 361.784 491.53 361.119 490.81 361.119Z" fill="white"/>
<path d="M475.729 360.872H460.971C460.251 360.872 459.668 361.536 459.668 362.356C459.668 363.175 460.251 363.84 460.971 363.84H475.729C476.449 363.84 477.033 363.175 477.033 362.356C477.033 361.536 476.449 360.872 475.729 360.872Z" fill="white"/>
<path d="M461.39 387.756H459.016C458.296 387.756 457.712 388.42 457.712 389.24C457.712 390.059 458.296 390.724 459.016 390.724H461.39C462.11 390.724 462.694 390.059 462.694 389.24C462.694 388.42 462.11 387.756 461.39 387.756Z" fill="white"/>
<path d="M469.085 387.756H466.71C465.99 387.756 465.407 388.42 465.407 389.24C465.407 390.059 465.99 390.724 466.71 390.724H469.085C469.805 390.724 470.388 390.059 470.388 389.24C470.388 388.42 469.805 387.756 469.085 387.756Z" fill="white"/>
<path d="M490.213 388.003H475.455C474.735 388.003 474.151 388.667 474.151 389.487C474.151 390.307 474.735 390.971 475.455 390.971H490.213C490.933 390.971 491.516 390.307 491.516 389.487C491.516 388.667 490.933 388.003 490.213 388.003Z" fill="white"/>
<path d="M434.233 387.756H431.859C431.139 387.756 430.555 388.42 430.555 389.24C430.555 390.059 431.139 390.724 431.859 390.724H434.233C434.953 390.724 435.537 390.059 435.537 389.24C435.537 388.42 434.953 387.756 434.233 387.756Z" fill="white"/>
<path d="M454.004 388.003H439.246C438.526 388.003 437.942 388.667 437.942 389.487C437.942 390.307 438.526 390.971 439.246 390.971H454.004C454.723 390.971 455.307 390.307 455.307 389.487C455.307 388.667 454.723 388.003 454.004 388.003Z" fill="white"/>
<path d="M441.475 381.057H439.101C438.381 381.057 437.797 381.722 437.797 382.541C437.797 383.361 438.381 384.025 439.101 384.025H441.475C442.195 384.025 442.779 383.361 442.779 382.541C442.779 381.722 442.195 381.057 441.475 381.057Z" fill="white"/>
<path d="M468.632 381.057H466.258C465.538 381.057 464.954 381.722 464.954 382.541C464.954 383.361 465.538 384.025 466.258 384.025H468.632C469.352 384.025 469.936 383.361 469.936 382.541C469.936 381.722 469.352 381.057 468.632 381.057Z" fill="white"/>
<path d="M476.327 381.057H473.952C473.232 381.057 472.649 381.722 472.649 382.541C472.649 383.361 473.232 384.025 473.952 384.025H476.327C477.047 384.025 477.63 383.361 477.63 382.541C477.63 381.722 477.047 381.057 476.327 381.057Z" fill="white"/>
<path d="M461.245 381.305H446.488C445.768 381.305 445.184 381.969 445.184 382.789C445.184 383.608 445.768 384.273 446.488 384.273H461.245C461.965 384.273 462.549 383.608 462.549 382.789C462.549 381.969 461.965 381.305 461.245 381.305Z" fill="white"/>
<path d="M448.717 374.358H446.343C445.623 374.358 445.039 375.023 445.039 375.842C445.039 376.662 445.623 377.326 446.343 377.326H448.717C449.437 377.326 450.021 376.662 450.021 375.842C450.021 375.023 449.437 374.358 448.717 374.358Z" fill="white"/>
<path d="M475.874 374.358H473.5C472.78 374.358 472.196 375.023 472.196 375.842C472.196 376.662 472.78 377.326 473.5 377.326H475.874C476.594 377.326 477.178 376.662 477.178 375.842C477.178 375.023 476.594 374.358 475.874 374.358Z" fill="white"/>
<path d="M483.569 374.358H481.194C480.474 374.358 479.891 375.023 479.891 375.842C479.891 376.662 480.474 377.326 481.194 377.326H483.569C484.289 377.326 484.872 376.662 484.872 375.842C484.872 375.023 484.289 374.358 483.569 374.358Z" fill="white"/>
<path d="M468.487 374.606H453.729C453.009 374.606 452.426 375.27 452.426 376.09C452.426 376.91 453.009 377.574 453.729 377.574H468.487C469.207 377.574 469.791 376.91 469.791 376.09C469.791 375.27 469.207 374.606 468.487 374.606Z" fill="white"/>
<path d="M455.959 367.66H453.585C452.865 367.66 452.281 368.324 452.281 369.144C452.281 369.963 452.865 370.628 453.585 370.628H455.959C456.679 370.628 457.263 369.963 457.263 369.144C457.263 368.324 456.679 367.66 455.959 367.66Z" fill="white"/>
<path d="M483.116 367.66H480.742C480.022 367.66 479.438 368.324 479.438 369.144C479.438 369.963 480.022 370.628 480.742 370.628H483.116C483.836 370.628 484.419 369.963 484.419 369.144C484.419 368.324 483.836 367.66 483.116 367.66Z" fill="white"/>
<path d="M490.81 367.66H488.436C487.716 367.66 487.132 368.324 487.132 369.144C487.132 369.963 487.716 370.628 488.436 370.628H490.81C491.53 370.628 492.114 369.963 492.114 369.144C492.114 368.324 491.53 367.66 490.81 367.66Z" fill="white"/>
<path d="M475.729 367.907H460.971C460.251 367.907 459.668 368.572 459.668 369.391C459.668 370.211 460.251 370.875 460.971 370.875H475.729C476.449 370.875 477.033 370.211 477.033 369.391C477.033 368.572 476.449 367.907 475.729 367.907Z" fill="white"/>
<path d="M421.609 466.262L410.462 446.202L445.451 414.449L459.893 396.234C461.769 393.867 464.158 392.103 466.821 391.117C469.484 390.131 472.327 389.958 475.067 390.615C477.807 391.272 480.348 392.736 482.435 394.861C484.523 396.986 486.083 399.698 486.962 402.725C488.264 407.21 487.984 412.096 486.181 416.351C484.379 420.606 481.194 423.898 477.301 425.531L454.464 435.109L421.609 466.262Z" fill="#FFB6B6"/>
<path d="M160.062 320.816V418.312H220.058V320.816C220.059 320.115 219.862 319.432 219.497 318.867C219.132 318.303 218.617 317.886 218.029 317.679C217.751 317.575 217.461 317.523 217.169 317.527H162.96C162.58 317.526 162.204 317.611 161.852 317.776C161.501 317.94 161.182 318.182 160.912 318.488C160.643 318.793 160.43 319.156 160.284 319.556C160.138 319.955 160.063 320.384 160.062 320.816ZM183.476 354.316C183.492 352.394 184.173 350.557 185.373 349.204C186.572 347.851 188.192 347.092 189.881 347.092C191.569 347.092 193.189 347.851 194.388 349.204C195.588 350.557 196.269 352.394 196.285 354.316V365.628C196.276 367.556 195.598 369.401 194.398 370.76C193.198 372.119 191.574 372.883 189.881 372.883C188.188 372.883 186.564 372.119 185.363 370.76C184.163 369.401 183.485 367.556 183.476 365.628V354.316Z" fill="#2F2E41"/>
<path d="M159.879 415.194V424.595C159.88 425.082 160.05 425.549 160.352 425.894C160.653 426.24 161.062 426.436 161.49 426.44H218.63C219.058 426.437 219.468 426.242 219.77 425.896C220.072 425.551 220.241 425.083 220.241 424.595V415.194H159.879Z" fill="#3F3D56"/>
<path d="M65.6816 173.926V351.94C65.6832 354.208 66.4755 356.383 67.8845 357.987C69.2935 359.591 71.2041 360.493 73.1967 360.495H304.911C306.904 360.493 308.814 359.591 310.223 357.987C311.632 356.383 312.425 354.208 312.426 351.94V173.926C312.421 171.66 311.628 169.488 310.219 167.886C308.811 166.284 306.902 165.383 304.911 165.38H73.1967C71.2058 165.383 69.297 166.284 67.8885 167.886C66.4799 169.488 65.6864 171.66 65.6816 173.926Z" fill="#3F3D56"/>
<path d="M71.1176 176.141V349.743C71.1194 350.955 71.5431 352.117 72.2959 352.974C73.0488 353.831 74.0693 354.314 75.1339 354.316H302.982C304.047 354.314 305.067 353.831 305.82 352.974C306.573 352.117 306.997 350.955 306.999 349.743V176.141C306.999 174.928 306.576 173.764 305.823 172.905C305.07 172.046 304.048 171.562 302.982 171.559H75.1339C74.068 171.562 73.0465 172.046 72.2935 172.905C71.5406 173.764 71.1177 174.928 71.1176 176.141Z" fill="white"/>
<path d="M113.402 425.803C113.634 426.134 113.929 426.401 114.264 426.583C114.6 426.766 114.968 426.86 115.339 426.858H250.894C251.265 426.857 251.631 426.763 251.966 426.581C252.3 426.399 252.595 426.135 252.829 425.807C253.062 425.479 253.229 425.096 253.316 424.686C253.403 424.276 253.409 423.849 253.333 423.436L251.228 412.057C251.141 411.593 250.953 411.161 250.682 410.801C250.411 410.44 250.065 410.163 249.675 409.994C249.393 409.868 249.093 409.803 248.79 409.804H117.435C117.132 409.803 116.832 409.868 116.55 409.994C116.161 410.163 115.815 410.44 115.543 410.8C115.272 411.161 115.084 411.593 114.997 412.057L112.893 423.436C112.818 423.848 112.825 424.275 112.913 424.684C113.001 425.094 113.168 425.476 113.402 425.803Z" fill="#2F2E41"/>
<path d="M295.588 195.474H82.3911C82.1695 195.468 81.9586 195.364 81.8036 195.184C81.6487 195.003 81.5619 194.761 81.5619 194.509C81.5619 194.256 81.6487 194.014 81.8036 193.834C81.9586 193.653 82.1695 193.549 82.3911 193.543H295.588C295.809 193.549 296.02 193.653 296.175 193.834C296.33 194.014 296.417 194.256 296.417 194.509C296.417 194.761 296.33 195.003 296.175 195.184C296.02 195.364 295.809 195.468 295.588 195.474Z" fill="#3F3D56"/>
<path d="M96.9036 188.615C99.6477 188.615 101.872 186.026 101.872 182.832C101.872 179.639 99.6477 177.05 96.9036 177.05C94.1595 177.05 91.9349 179.639 91.9349 182.832C91.9349 186.026 94.1595 188.615 96.9036 188.615Z" fill="#3F3D56"/>
<path d="M114.068 188.615C116.812 188.615 119.037 186.026 119.037 182.832C119.037 179.639 116.812 177.05 114.068 177.05C111.324 177.05 109.099 179.639 109.099 182.832C109.099 186.026 111.324 188.615 114.068 188.615Z" fill="#3F3D56"/>
<path d="M131.232 188.615C133.977 188.615 136.201 186.026 136.201 182.832C136.201 179.639 133.977 177.05 131.232 177.05C128.488 177.05 126.264 179.639 126.264 182.832C126.264 186.026 128.488 188.615 131.232 188.615Z" fill="#3F3D56"/>
<path d="M285.252 178.48H273.061C272.82 178.486 272.591 178.6 272.422 178.796C272.254 178.992 272.159 179.256 272.159 179.53C272.159 179.805 272.254 180.068 272.422 180.265C272.591 180.461 272.82 180.574 273.061 180.581H285.252C285.494 180.577 285.726 180.465 285.896 180.268C286.066 180.071 286.162 179.806 286.162 179.53C286.162 179.254 286.066 178.989 285.896 178.793C285.726 178.596 285.494 178.484 285.252 178.48Z" fill="#3F3D56"/>
<path d="M285.252 182.425H273.061C272.82 182.431 272.59 182.544 272.422 182.741C272.253 182.937 272.158 183.201 272.158 183.475C272.158 183.75 272.253 184.014 272.422 184.21C272.59 184.406 272.82 184.52 273.061 184.526H285.252C285.495 184.522 285.727 184.41 285.897 184.214C286.068 184.017 286.164 183.752 286.164 183.475C286.164 183.199 286.068 182.934 285.897 182.737C285.727 182.54 285.495 182.428 285.252 182.425Z" fill="#3F3D56"/>
<path d="M285.252 186.37H273.061C272.82 186.377 272.591 186.49 272.422 186.686C272.254 186.883 272.159 187.146 272.159 187.421C272.159 187.695 272.254 187.959 272.422 188.155C272.591 188.351 272.82 188.465 273.061 188.471H285.252C285.494 188.467 285.726 188.355 285.896 188.158C286.066 187.962 286.162 187.697 286.162 187.421C286.162 187.145 286.066 186.88 285.896 186.683C285.726 186.486 285.494 186.374 285.252 186.37Z" fill="#3F3D56"/>
<path d="M579.157 419.32C579.525 420.54 580.223 421.595 581.15 422.335C582.078 423.074 583.188 423.46 584.32 423.437L606.441 422.789C607.582 422.764 608.684 422.319 609.585 421.521C610.485 420.723 611.134 419.615 611.435 418.362L614.565 380.254C615.676 380.827 616.885 381.11 618.104 381.082C619.163 381.052 620.207 380.784 621.175 380.295C622.143 379.806 623.017 379.104 623.747 378.23C624.477 377.356 625.049 376.327 625.43 375.201C625.811 374.076 625.993 372.876 625.966 371.67C625.94 370.465 625.705 369.277 625.275 368.174C624.845 367.072 624.229 366.077 623.461 365.246C622.693 364.414 621.789 363.764 620.801 363.33C619.812 362.897 618.758 362.689 617.699 362.719C617.212 362.718 616.726 362.775 616.249 362.891C615.731 362.253 615.101 361.745 614.4 361.401C613.699 361.057 612.943 360.883 612.18 360.892L578.153 361.892C577.87 361.904 577.589 361.944 577.313 362.011C576.567 362.169 575.859 362.508 575.238 363.004C574.616 363.5 574.095 364.141 573.709 364.886C573.324 365.63 573.083 366.46 573.002 367.319C572.922 368.178 573.005 369.047 573.244 369.867L579.157 419.32ZM615.207 377.667L617.435 368.586C617.688 367.537 617.694 366.43 617.452 365.378C617.56 365.378 617.655 365.319 617.763 365.319C619.291 365.283 620.768 365.938 621.872 367.14C622.976 368.343 623.616 369.994 623.651 371.733C623.687 373.472 623.116 375.156 622.063 376.416C621.009 377.675 619.561 378.408 618.033 378.454C617.046 378.489 616.069 378.217 615.207 377.667Z" fill="#2F2E41"/>
<path d="M577.313 362.011C578.038 366.73 586.189 370.047 595.989 369.47C605.001 368.998 612.37 365.395 613.72 361.125C613.22 360.957 612.7 360.878 612.18 360.892L578.153 361.892C577.87 361.904 577.589 361.943 577.313 362.011Z" fill="#3F3D56"/>
<path d="M597.785 398.38C597.83 398.367 597.872 398.345 597.911 398.316L602.715 394.737C602.773 394.694 602.821 394.635 602.854 394.565C602.887 394.496 602.904 394.418 602.904 394.339C602.904 394.26 602.887 394.183 602.854 394.113C602.821 394.044 602.773 393.985 602.715 393.942L597.722 390.219C597.676 390.184 597.625 390.16 597.571 390.148C597.517 390.136 597.461 390.137 597.408 390.149C597.354 390.162 597.303 390.187 597.257 390.222C597.212 390.257 597.173 390.302 597.143 390.354C597.113 390.407 597.092 390.465 597.082 390.527C597.072 390.588 597.072 390.651 597.083 390.712C597.095 390.774 597.117 390.832 597.148 390.883C597.179 390.935 597.218 390.979 597.264 391.013L601.724 394.339L597.454 397.521C597.371 397.583 597.31 397.676 597.282 397.783C597.254 397.891 597.26 398.007 597.3 398.11C597.34 398.213 597.41 398.297 597.499 398.346C597.588 398.395 597.689 398.407 597.785 398.38H597.785Z" fill="#A5E4F2"/>
<path d="M590.197 398.778C590.278 398.755 590.351 398.704 590.406 398.634C590.462 398.563 590.497 398.475 590.509 398.382C590.52 398.288 590.506 398.192 590.47 398.107C590.433 398.022 590.375 397.952 590.303 397.905L585.875 395.014L590.155 391.395C590.198 391.358 590.236 391.311 590.264 391.258C590.292 391.204 590.31 391.145 590.318 391.083C590.326 391.022 590.324 390.959 590.31 390.898C590.297 390.838 590.273 390.781 590.241 390.731C590.208 390.681 590.167 390.638 590.12 390.606C590.073 390.574 590.021 390.553 589.967 390.544C589.912 390.535 589.857 390.538 589.804 390.553C589.751 390.569 589.701 390.596 589.657 390.633L584.865 394.685C584.809 394.732 584.765 394.794 584.736 394.865C584.706 394.937 584.693 395.016 584.697 395.094C584.701 395.173 584.722 395.249 584.759 395.317C584.795 395.384 584.846 395.439 584.906 395.478L589.887 398.729C589.981 398.791 590.092 398.808 590.197 398.778Z" fill="#A5E4F2"/>
<path d="M597.307 401.516C597.348 401.505 597.386 401.486 597.422 401.461C597.468 401.429 597.509 401.386 597.542 401.336C597.574 401.286 597.597 401.228 597.61 401.168C597.623 401.107 597.626 401.044 597.617 400.982C597.609 400.921 597.59 400.861 597.562 400.808L590.752 388.062C590.694 387.954 590.601 387.877 590.493 387.848C590.386 387.818 590.272 387.838 590.178 387.904C590.083 387.97 590.016 388.075 589.989 388.197C589.963 388.32 589.981 388.449 590.038 388.557L596.848 401.303C596.895 401.39 596.964 401.457 597.047 401.496C597.129 401.534 597.221 401.541 597.307 401.516Z" fill="#A5E4F2"/>
<path d="M214.463 247.948H177.563C176.058 247.948 174.837 249.337 174.837 251.051V255.155C174.837 256.869 176.058 258.258 177.563 258.258H214.463C215.968 258.258 217.188 256.869 217.188 255.155V251.051C217.188 249.337 215.968 247.948 214.463 247.948Z" fill="#A5E4F2"/>
<path d="M235.971 268.568H156.054C154.549 268.568 153.329 269.957 153.329 271.671V275.775C153.329 277.489 154.549 278.878 156.054 278.878H235.971C237.476 278.878 238.697 277.489 238.697 275.775V271.671C238.697 269.957 237.476 268.568 235.971 268.568Z" fill="#E6E6E6"/>
<path d="M235.971 289.188H156.054C154.549 289.188 153.329 290.577 153.329 292.291V296.395C153.329 298.109 154.549 299.498 156.054 299.498H235.971C237.476 299.498 238.697 298.109 238.697 296.395V292.291C238.697 290.577 237.476 289.188 235.971 289.188Z" fill="#E6E6E6"/>
<path d="M242.746 358.237L242.927 358.888L242.936 358.91L248.385 377.768L254.653 399.5L266.445 440.34L266.56 446.684V446.706L267.436 497.739L265.007 504.658L267.741 516.001C267.741 516.001 266.483 498.855 259.739 508.702C255.92 514.297 251.452 520.023 247.785 525.391C253.129 527.853 258.558 530.08 264.073 532.071C265.264 532.505 266.464 532.917 267.665 533.329C267.922 533.416 268.179 533.503 268.436 533.589C286.718 539.745 305.619 543.203 324.674 543.881C325.665 543.913 326.637 543.935 327.58 543.957C327.913 543.968 328.237 543.978 328.561 543.978C329.628 543.989 330.685 544 331.752 544C333.905 544 336.048 543.964 338.182 543.892C353.974 543.385 369.675 540.967 385.018 536.68C384.914 529.469 384.628 521.043 384.218 512.042C384.028 507.628 379.751 502.846 379.494 498.226C379.313 494.756 383.151 491.492 382.951 487.967C381.656 466.268 380.037 474.597 378.836 459.231C378.713 457.724 378.598 456.281 378.493 454.904C377.722 445.036 377.188 438.865 377.188 438.865L382.313 402.092L390.362 344.357L389.743 343.196L389.048 342.806L346.593 318.883L344.287 312.16C343.616 310.223 342.451 308.559 340.941 307.382C339.432 306.205 337.648 305.569 335.819 305.556L307.852 305.425C306.401 305.418 304.969 305.805 303.675 306.553C302.381 307.302 301.263 308.391 300.413 309.731L292.84 321.67L242.746 358.237Z" fill="#3F3D56"/>
<path d="M272.894 431.252L266.56 446.684L262.235 457.225L254.796 501.567L251.071 506.068L247.88 490.136L214.482 498.578C213.386 491.649 214.189 498.813 213.512 491.211C213.703 490.994 213.903 490.777 214.103 490.56C214.636 489.996 215.084 489.465 215.074 488.955C214.693 462.734 215.836 418.109 225.381 391.074C226.876 386.66 228.847 382.474 231.249 378.614C231.439 378.321 231.62 378.028 231.801 377.736C236.202 370.719 238.983 363.811 242.927 358.899V358.888C242.951 358.866 242.974 358.84 242.994 358.812C243.008 358.804 243.021 358.793 243.032 358.78L270.122 342.426L271.284 379.601L272.113 406.321L272.894 431.252Z" fill="#3F3D56"/>
<path d="M370.577 435.635L378.49 454.909L381.251 461.621L388.689 505.96L392.401 510.449L395.599 494.522L397.102 494.171L424.205 487.78L432.105 516.343C433.885 512.965 434.587 508.992 434.091 505.093C433.594 501.195 431.931 497.612 429.382 494.948C428.842 494.393 428.393 493.852 428.405 493.34C428.855 462.499 427.198 406.184 412.234 383.005C407.481 375.65 404.629 368.323 400.48 363.205C400.468 363.19 400.468 363.176 400.455 363.176L390.358 344.355L389.742 343.2L389.048 342.805L370.577 435.635Z" fill="#3F3D56"/>
<path d="M322.644 296.364C343.192 296.364 359.85 277.4 359.85 254.006C359.85 230.613 343.192 211.648 322.644 211.648C302.095 211.648 285.437 230.613 285.437 254.006C285.437 277.4 302.095 296.364 322.644 296.364Z" fill="#FFB6B6"/>
<path d="M372.933 224.419C372.644 224.069 372.297 223.788 371.911 223.593C371.525 223.399 371.108 223.295 370.686 223.288L371.246 221.52C371.428 220.963 371.478 220.361 371.389 219.775C371.299 219.189 371.075 218.641 370.739 218.186C370.402 217.732 369.966 217.387 369.474 217.188C368.982 216.989 368.452 216.942 367.939 217.052L365.902 217.499L366.094 215.949C366.167 215.372 366.108 214.783 365.921 214.24C365.734 213.697 365.426 213.219 365.028 212.853C364.629 212.486 364.154 212.244 363.648 212.151C363.143 212.057 362.624 212.115 362.144 212.318C361.708 212.514 361.238 212.596 360.77 212.558C360.302 212.52 359.847 212.363 359.439 212.099C359.029 211.843 358.673 211.489 358.396 211.06C358.12 210.632 357.928 210.14 357.836 209.618L357.126 205.721L357.051 205.511C353.594 198.952 346.947 194.18 338.814 192.431C331.575 190.862 324.151 191.661 316.995 192.412C314.156 192.716 310.95 193.058 308.278 194.922C306.007 196.519 304.086 199.713 304.479 202.935C297.423 200.473 289.858 205.388 286.109 211.586C281.666 218.963 280.94 228.203 280.823 235.428C280.506 252.52 283.603 266.503 290.008 276.998C290.476 277.759 290.592 279.346 291.519 279.879L291.327 279.527C292.363 280.116 293.415 281.067 293.022 282.084C291.895 285.012 299.385 291.486 304.662 293.625C314.29 297.532 327.091 297.199 336.092 295.792L336.409 293.368C339.657 292.864 341.945 291.904 342.588 290.402C343.724 289.299 344.693 288.311 345.536 287.398L345.544 287.388C345.561 287.369 345.594 287.341 345.611 287.322C349.678 282.882 350.621 280.354 351.047 276.504C351.456 272.73 350.73 268.899 349.987 265.448C365.635 268.205 343.824 246.474 358.403 242.272C358.571 242.213 358.741 242.166 358.913 242.129C359.339 242.015 359.764 241.901 360.174 241.768C362.146 241.159 364.034 240.241 365.785 239.04C369.86 236.217 371.204 232.471 373.308 228.25C373.612 227.649 373.739 226.954 373.672 226.265C373.604 225.576 373.345 224.929 372.933 224.419Z" fill="#2F2E41"/>
<path d="M454.237 438.651C454.229 440.315 454.212 442.644 454.145 445.524C454.137 445.924 454.129 446.332 454.12 446.751C454.012 452.046 453.903 456.485 453.728 461.419C453.72 461.761 453.711 462.094 453.695 462.436C453.461 469.318 453.093 477.332 452.459 490.023C451.281 513.465 449.227 493.246 447.165 501.468C447.065 501.877 446.956 502.362 446.856 502.932C446.544 505.002 446.017 507.022 445.286 508.95C444.192 509.691 443.065 510.404 441.954 511.117C438.79 513.123 435.575 515.053 432.335 516.887C430.515 517.914 428.686 518.922 426.849 519.891C426.557 520.044 426.273 520.196 425.989 520.338C416.582 525.292 406.887 529.504 396.973 532.943C395.035 533.609 393.107 534.255 391.153 534.854C389.115 535.501 387.078 536.109 385.015 536.679C369.672 540.968 353.972 543.386 338.18 543.895C336.051 543.971 333.905 543.999 331.75 543.999C330.681 543.999 329.629 543.99 328.561 543.98C328.235 543.98 327.909 543.971 327.584 543.961C326.64 543.933 325.663 543.914 324.678 543.885C305.622 543.208 286.721 539.748 268.44 533.59L267.663 533.333C266.461 532.915 265.267 532.506 264.073 532.069C258.562 530.082 253.132 527.858 247.782 525.396C243.699 523.523 239.663 521.514 235.674 519.369C235.638 519.357 235.604 519.338 235.574 519.312C234.739 518.874 233.896 518.418 233.061 517.952C232.952 517.886 232.835 517.819 232.718 517.753C229.604 516.022 226.523 514.21 223.475 512.315C220.911 505.613 217.304 504.33 215.066 498.436C214.415 496.685 213.944 494.854 213.664 492.979C213.664 492.96 213.655 492.941 213.655 492.913C213.889 496.449 212.662 486.639 213.647 492.875C213.639 492.761 213.63 492.637 213.622 492.495C213.597 492.152 213.563 491.734 213.513 491.211C210.649 459.375 210.833 422.966 209.589 392.965C209.505 391.025 209.419 389.168 209.33 387.394C209.305 386.805 209.271 386.225 209.238 385.654C209.296 385.483 209.363 385.303 209.438 385.131C209.454 385.082 209.474 385.034 209.497 384.989C209.522 384.93 209.549 384.873 209.58 384.818C209.597 384.789 209.622 384.751 209.639 384.723C209.651 384.69 209.665 384.658 209.681 384.628C209.756 384.495 209.839 384.352 209.931 384.219C209.973 384.162 210.006 384.114 210.048 384.067C210.077 384.018 210.11 383.974 210.148 383.934C210.174 383.888 210.205 383.846 210.24 383.81C210.273 383.772 210.307 383.725 210.349 383.677C210.366 383.647 210.389 383.621 210.415 383.601C210.481 383.515 210.554 383.435 210.632 383.363C210.93 383.051 211.249 382.765 211.584 382.508C211.701 382.422 211.827 382.337 211.943 382.242C212.785 381.669 213.671 381.185 214.59 380.797C214.908 380.664 215.225 380.54 215.567 380.407C215.693 380.369 215.81 380.321 215.935 380.274C216.118 380.207 216.302 380.141 216.494 380.093C217.446 379.77 218.473 379.494 219.584 379.238C219.717 379.209 219.859 379.181 220.001 379.143C220.202 379.095 220.41 379.057 220.619 379.019C220.903 378.962 221.195 378.905 221.488 378.848C223.968 378.401 226.782 378.068 229.888 377.85C230.18 377.831 230.472 377.812 230.765 377.793C231.107 377.774 231.449 377.755 231.8 377.736C232.092 377.717 232.393 377.707 232.693 377.698C232.986 377.679 233.286 377.669 233.595 377.66C234.439 377.631 235.307 377.603 236.192 377.584C238.714 377.527 241.369 377.546 244.158 377.612C245.452 377.65 246.772 377.688 248.124 377.755C248.216 377.755 248.3 377.764 248.383 377.764C249.561 377.812 250.746 377.869 251.965 377.945C252.817 377.992 253.677 378.04 254.537 378.097C255.347 378.154 256.165 378.211 256.992 378.278C257.635 378.316 258.278 378.373 258.929 378.42C259.48 378.468 260.031 378.515 260.583 378.553L261.334 378.61C261.743 378.648 262.152 378.677 262.57 378.724C263.488 378.81 264.407 378.895 265.342 378.981C266.269 379.076 267.213 379.171 268.156 379.266C269.1 379.361 270.052 379.466 271.003 379.57C271.104 379.58 271.196 379.589 271.287 379.599C272.156 379.703 273.024 379.799 273.901 379.903C274.101 379.922 274.31 379.941 274.51 379.97C275.346 380.065 276.199 380.177 277.042 380.279C277.301 380.311 277.559 380.342 277.818 380.374C278.479 380.456 279.131 380.527 279.796 380.616C280.673 380.73 281.566 380.835 282.435 380.968C283.111 381.053 283.787 381.139 284.464 381.234C285.524 381.377 286.601 381.529 287.678 381.69C288.088 381.747 288.497 381.804 288.906 381.871C291.979 382.308 295.085 382.793 298.241 383.297C303.026 384.067 307.886 384.903 312.779 385.806C317.68 386.71 322.61 387.663 327.567 388.668C328.819 388.925 330.072 389.181 331.333 389.447C331.9 389.571 332.468 389.694 333.036 389.818C334.005 390.018 334.973 390.227 335.942 390.436C336.91 390.645 337.879 390.854 338.848 391.073C340 391.329 341.161 391.586 342.313 391.843C349.903 393.554 357.452 395.379 364.816 397.29C366.027 397.604 367.238 397.927 368.44 398.241C370.845 398.877 373.228 399.524 375.588 400.18C376.239 400.351 376.882 400.532 377.525 400.712C379.128 401.168 380.732 401.625 382.31 402.091L382.585 402.176C383.746 402.499 384.882 402.832 386.017 403.174C388.698 403.973 391.333 404.781 393.925 405.598C395.645 406.14 397.345 406.688 399.027 407.243C401.54 408.07 404.003 408.906 406.4 409.753C406.993 409.962 407.585 410.171 408.17 410.37C409.923 410.988 411.652 411.616 413.33 412.243C414.666 412.737 415.969 413.241 417.255 413.745C418.541 414.249 419.802 414.753 421.037 415.257C421.831 415.58 422.616 415.922 423.4 416.245C424.528 416.721 425.638 417.196 426.724 417.671C427.058 417.814 427.383 417.966 427.709 418.108C427.918 418.213 428.118 418.299 428.319 418.394C428.711 418.574 429.112 418.745 429.496 418.926C429.888 419.097 430.273 419.278 430.657 419.468C431.032 419.639 431.417 419.82 431.784 420C432.16 420.171 432.527 420.352 432.895 420.542C433.203 420.685 433.504 420.837 433.796 420.989C434.389 421.284 434.982 421.578 435.558 421.882C435.842 422.035 436.126 422.177 436.41 422.329L437.061 422.671C437.153 422.728 437.245 422.776 437.337 422.824C437.545 422.938 437.763 423.061 437.971 423.175C438.456 423.432 438.932 423.708 439.399 423.964C440.025 424.326 440.635 424.687 441.219 425.039C441.812 425.4 442.389 425.761 442.94 426.113C443.031 426.17 443.115 426.227 443.207 426.284C443.332 426.36 443.457 426.445 443.583 426.521C444.008 426.797 444.418 427.082 444.827 427.358C445.628 427.919 446.388 428.47 447.098 429.022C447.257 429.145 447.407 429.269 447.566 429.383C448.092 429.811 448.593 430.229 449.06 430.657C449.06 430.666 449.06 430.666 449.069 430.666C449.227 430.799 449.378 430.942 449.528 431.075C449.653 431.208 449.787 431.322 449.912 431.455C450.346 431.883 450.747 432.292 451.114 432.71C451.237 432.839 451.355 432.976 451.465 433.119C451.514 433.165 451.558 433.215 451.599 433.271C451.766 433.461 451.916 433.651 452.058 433.841C452.08 433.867 452.099 433.896 452.116 433.927C452.317 434.193 452.5 434.459 452.676 434.725C452.759 434.858 452.851 434.991 452.926 435.125C453.027 435.286 453.127 435.457 453.21 435.619C453.285 435.752 453.352 435.895 453.419 436.028C453.596 436.37 453.747 436.73 453.87 437.102C453.964 437.354 454.039 437.615 454.095 437.881C454.159 438.134 454.206 438.391 454.237 438.651Z" fill="#2F2E41"/>
<path opacity="0.2" d="M454.237 438.651C454.229 440.315 454.212 442.644 454.145 445.524C454.137 445.924 454.12 446.332 454.112 446.751C454.028 450.791 453.903 455.782 453.728 461.419C453.719 461.761 453.711 462.094 453.694 462.436C453.461 469.318 453.093 477.332 452.459 490.023C451.281 513.465 449.227 493.246 447.165 501.468C441.437 497.457 435.157 493.255 428.444 488.939C427.233 488.16 426.011 487.377 424.778 486.591C411.351 478.064 396.355 469.128 380.698 460.278C380.08 459.926 379.454 459.575 378.836 459.232C342.973 439.051 303.827 419.42 272.114 406.321C265.993 403.792 260.148 401.511 254.654 399.505C243.081 395.294 233.077 392.347 225.379 391.073C217.362 389.742 211.826 390.217 209.589 392.965C209.505 391.025 209.419 389.168 209.33 387.394C209.296 386.805 209.263 386.225 209.229 385.654C209.281 385.498 209.348 385.348 209.413 385.198C209.422 385.176 209.429 385.153 209.438 385.131C209.454 385.082 209.474 385.034 209.497 384.989C209.521 384.93 209.549 384.873 209.58 384.818C209.607 384.75 209.641 384.687 209.68 384.628C209.756 384.495 209.839 384.352 209.931 384.219C209.998 384.119 210.071 384.024 210.148 383.934C210.174 383.888 210.205 383.846 210.24 383.81C210.273 383.772 210.307 383.724 210.348 383.677C210.366 383.647 210.389 383.621 210.415 383.601C210.481 383.515 210.554 383.435 210.632 383.363C210.93 383.051 211.248 382.765 211.584 382.508C211.701 382.422 211.826 382.337 211.943 382.242C212.785 381.668 213.671 381.185 214.59 380.797C214.908 380.664 215.225 380.54 215.567 380.407C215.692 380.369 215.809 380.321 215.935 380.274C216.118 380.207 216.302 380.141 216.494 380.093C217.446 379.77 218.473 379.494 219.584 379.238C219.918 379.162 220.268 379.086 220.619 379.019C220.903 378.962 221.195 378.905 221.487 378.848C223.967 378.401 226.781 378.068 229.888 377.85C230.18 377.831 230.472 377.812 230.764 377.793C231.107 377.774 231.449 377.755 231.8 377.736C232.092 377.717 232.393 377.707 232.693 377.698C232.985 377.679 233.286 377.669 233.595 377.66C234.438 377.631 235.307 377.603 236.192 377.584C238.714 377.536 241.369 377.555 244.158 377.622C245.452 377.65 246.771 377.698 248.124 377.764C248.208 377.764 248.299 377.774 248.383 377.774C249.56 377.812 250.754 377.878 251.965 377.945C252.817 377.992 253.677 378.04 254.537 378.097C255.347 378.154 256.165 378.211 256.992 378.277C257.635 378.315 258.278 378.373 258.929 378.42C259.48 378.468 260.031 378.515 260.582 378.553C261.242 378.61 261.902 378.667 262.57 378.724C263.488 378.81 264.407 378.895 265.342 378.981C266.269 379.076 267.212 379.171 268.156 379.266C269.099 379.361 270.051 379.466 271.003 379.57C271.103 379.58 271.195 379.589 271.287 379.599C272.156 379.703 273.024 379.798 273.901 379.903C278.76 380.464 283.762 381.12 288.906 381.871C291.979 382.318 295.09 382.796 298.241 383.306C303.026 384.076 307.886 384.913 312.779 385.806C317.68 386.709 322.609 387.663 327.567 388.668C328.819 388.924 330.072 389.181 331.332 389.447C332.869 389.77 334.405 390.1 335.942 390.436C336.91 390.645 337.879 390.854 338.848 391.073C340 391.33 341.161 391.586 342.313 391.843C349.903 393.554 357.451 395.379 364.816 397.29C366.027 397.604 367.238 397.927 368.44 398.241C370.845 398.877 373.228 399.524 375.588 400.18C376.239 400.36 376.882 400.541 377.525 400.722C379.137 401.178 380.731 401.634 382.31 402.091V402.1C382.401 402.119 382.493 402.148 382.585 402.176C383.738 402.509 384.881 402.842 386.017 403.184C388.697 403.982 391.333 404.787 393.925 405.598C395.645 406.15 397.348 406.692 399.026 407.243C401.54 408.079 404.003 408.916 406.4 409.753C406.992 409.962 407.585 410.171 408.17 410.37C409.923 410.998 411.643 411.622 413.33 412.243C414.666 412.737 415.969 413.241 417.255 413.745C418.541 414.249 419.801 414.753 421.037 415.257C421.839 415.58 422.624 415.913 423.4 416.236C424.536 416.711 425.638 417.186 426.724 417.671C427.058 417.814 427.383 417.966 427.709 418.109C428.319 418.375 428.911 418.65 429.496 418.926C429.888 419.097 430.272 419.278 430.657 419.468C431.032 419.639 431.416 419.82 431.784 420C432.16 420.171 432.527 420.352 432.894 420.542C433.203 420.685 433.504 420.837 433.796 420.989C434.389 421.284 434.982 421.578 435.558 421.882C435.842 422.035 436.126 422.177 436.41 422.329L437.061 422.671C437.153 422.729 437.245 422.776 437.337 422.824C438.046 423.204 438.731 423.584 439.399 423.964C440.025 424.326 440.635 424.687 441.219 425.039C441.912 425.457 442.572 425.866 443.207 426.284C443.332 426.36 443.457 426.445 443.582 426.521C444.008 426.797 444.417 427.082 444.827 427.358C445.628 427.919 446.388 428.47 447.098 429.022C447.799 429.573 448.451 430.115 449.06 430.657C449.06 430.666 449.06 430.666 449.068 430.666C449.361 430.932 449.645 431.198 449.912 431.455C450.346 431.883 450.747 432.292 451.114 432.71C451.237 432.839 451.354 432.976 451.465 433.119C451.514 433.165 451.558 433.216 451.599 433.271C451.774 433.489 451.949 433.708 452.116 433.927C452.317 434.193 452.5 434.459 452.676 434.725C452.759 434.858 452.851 434.991 452.926 435.125C453.026 435.286 453.127 435.457 453.21 435.619C453.285 435.752 453.352 435.895 453.419 436.028C453.596 436.37 453.747 436.73 453.87 437.102C453.961 437.355 454.036 437.616 454.095 437.881C454.158 438.134 454.206 438.391 454.237 438.651Z" fill="black"/>
</g>
<defs>
<clipPath id="clip0_625_2">
<rect width="657" height="544" fill="white"/>
</clipPath>
</defs>
</svg>
