<svg width="40" height="40" viewBox="0 0 40 40" fill="none" xmlns="http://www.w3.org/2000/svg">
<mask id="mask0_450_1260" style="mask-type:alpha" maskUnits="userSpaceOnUse" x="0" y="0" width="40" height="40">
<rect width="40" height="40" fill="white"/>
</mask>
<g mask="url(#mask0_450_1260)">
<path fill-rule="evenodd" clip-rule="evenodd" d="M27.5259 14.1955C27.116 15.1853 26.5151 16.0848 25.7577 16.8424C25.0002 17.6001 24.1009 18.2011 23.1111 18.6112C22.1213 19.0213 21.0605 19.2324 19.9891 19.2325C17.8254 19.2327 15.7502 18.3734 14.22 16.8436C12.6899 15.3138 11.8301 13.2388 11.8299 11.075C11.8298 10.0037 12.0407 8.94276 12.4506 7.95291C12.8605 6.96305 13.4614 6.06362 14.2189 5.30597C15.7487 3.77583 17.8237 2.91608 19.9874 2.91586C22.1511 2.91564 24.2263 3.77497 25.7565 5.30479C27.2866 6.83462 28.1464 8.90964 28.1466 11.0734C28.1467 12.1447 27.9358 13.2056 27.5259 14.1955ZM3.66992 32.6834C3.66992 36.16 13.3983 37.0867 19.9883 37.0867C26.5783 37.0867 36.3066 36.16 36.3066 32.6834C36.3066 29.205 31.7366 21.7284 19.9883 21.7284C8.23992 21.7284 3.66992 29.205 3.66992 32.6834Z" fill="#91B8E6"/>
</g>
</svg>
