<svg width="32" height="24" viewBox="0 0 32 24" fill="none" xmlns="http://www.w3.org/2000/svg">
<g clip-path="url(#clip0_253_261)">
<path d="M7.53523 4.34858C9.75023 2.7314 12.5902 1.49999 16.0002 1.49999C20.0402 1.49999 23.2752 3.22687 25.6302 5.27812C27.9702 7.31249 29.5352 9.7078 30.2752 11.4234C30.4402 11.7937 30.4402 12.2062 30.2752 12.5766C29.6052 14.0906 28.2602 16.2234 26.2802 18.1266L31.5402 21.989C32.0602 22.3734 32.1552 23.0812 31.7452 23.5687C31.3352 24.0562 30.5802 24.1453 30.0602 23.7609L0.460035 2.01046C-0.0615648 1.62702 -0.153015 0.920148 0.255835 0.431054C0.664735 -0.0579459 1.41874 -0.14368 1.94074 0.239617L7.53523 4.34858ZM11.1552 7.0078L15.6702 10.3266C15.8802 9.92811 16.0002 9.47812 16.0002 8.9578C16.0002 8.46093 15.8052 7.95468 15.5802 7.51874C15.7202 7.50468 15.8602 7.4578 16.0002 7.4578C18.6502 7.4578 20.8002 9.47343 20.8002 11.9578C20.8002 12.6422 20.6552 13.2516 20.3552 13.8047L22.3302 15.2203C22.8852 14.2641 23.2002 13.1672 23.2002 11.9578C23.2002 8.27343 19.9752 5.2078 16.0002 5.2078C14.1352 5.2078 12.4302 5.91562 11.1552 7.0078ZM16.0002 22.5C11.9602 22.5 8.72523 20.775 6.37023 18.7219C4.03123 16.6453 2.46724 14.25 1.72324 12.5766C1.55924 12.2062 1.55924 11.7937 1.72324 11.4234C2.20023 10.35 3.01473 8.96249 4.15473 7.5703L8.87023 11.0531C8.82523 11.3625 8.80023 11.6766 8.80023 11.9578C8.80023 15.7266 12.0252 18.75 16.0002 18.75C16.9352 18.75 17.8302 18.5812 18.6502 18.2766L22.3102 20.9766C20.4952 21.8953 18.3902 22.5 16.0002 22.5Z" fill="#757186"/>
</g>
<defs>
<clipPath id="clip0_253_261">
<rect width="32" height="24" fill="white"/>
</clipPath>
</defs>
</svg>
