<svg width="35" height="25" viewBox="0 0 35 25" fill="none" xmlns="http://www.w3.org/2000/svg">
<path d="M16.9903 7.16518C17.1605 7.14844 17.3306 7.14286 17.5008 7.14286C20.7214 7.14286 23.3343 9.49219 23.3343 12.5C23.3343 15.4576 20.7214 17.8571 17.5008 17.8571C14.2254 17.8571 11.6672 15.4576 11.6672 12.5C11.6672 12.3438 11.6733 12.1875 11.6915 12.0312C12.2566 12.2824 12.9129 12.5 13.6117 12.5C15.7568 12.5 17.5008 10.8984 17.5008 8.92857C17.5008 8.28683 17.2638 7.68415 16.9903 7.16518ZM29.2044 4.49777C32.0483 6.91964 33.9503 9.7712 34.8496 11.8136C35.0501 12.2545 35.0501 12.7455 34.8496 13.1864C33.9503 15.1786 32.0483 18.0301 29.2044 20.5022C26.3423 22.9464 22.4107 25 17.5008 25C12.5908 25 8.65924 22.9464 5.79835 20.5022C2.95448 18.0301 1.0537 15.1786 0.149554 13.1864C-0.0498513 12.7455 -0.0498513 12.2545 0.149554 11.8136C1.0537 9.7712 2.95448 6.91964 5.79835 4.49777C8.65924 2.0558 12.5908 0 17.5008 0C22.4107 0 26.3423 2.0558 29.2044 4.49777ZM17.5008 4.46429C12.6698 4.46429 8.75039 8.06362 8.75039 12.5C8.75039 16.9364 12.6698 20.5357 17.5008 20.5357C22.3317 20.5357 26.2511 16.9364 26.2511 12.5C26.2511 8.06362 22.3317 4.46429 17.5008 4.46429Z" fill="#757186"/>
</svg>
