<svg width="17" height="17" viewBox="0 0 17 17" fill="none" xmlns="http://www.w3.org/2000/svg">
<path d="M7.85946 0.0105114C7.29148 0.0743771 7.04299 0.113407 6.688 0.191465C3.49309 0.890451 1.00462 3.31384 0.227193 6.48944C0.0425987 7.2452 0 7.63195 0 8.50479C0 9.37764 0.0461486 9.77503 0.227193 10.5201C0.553783 11.8507 1.15727 13.0251 2.05539 14.0683C3.41145 15.6472 5.30709 16.662 7.43348 16.9565C7.87011 17.0168 9.13032 17.0133 9.56341 16.9529C11.2709 16.7188 12.7796 16.0446 14.054 14.9553C15.6089 13.6212 16.6028 11.8081 16.933 9.70407C17.0217 9.14701 17.0217 7.86613 16.9365 7.30906C16.6454 5.46048 15.8254 3.81413 14.5546 2.5297C13.2446 1.20269 11.6081 0.375971 9.71606 0.0779247C9.38592 0.0247021 8.1257 -0.0214214 7.85946 0.0105114ZM9.03448 1.22753C10.0036 1.59299 10.9337 2.99096 11.4413 4.83955L11.5123 5.09857H8.49844H5.48458L5.57688 4.76859C6.03127 3.10805 6.90099 1.75265 7.81331 1.28785C8.1612 1.11044 8.66174 1.0856 9.03448 1.22753ZM5.74373 1.69943C5.72598 1.72427 5.64788 1.84845 5.56623 1.97619C5.08345 2.73549 4.66101 3.72898 4.41962 4.69053L4.32022 5.08082L3.14166 5.09147C2.49557 5.09502 1.96664 5.09147 1.96664 5.08082C1.96664 5.07018 2.05894 4.91051 2.16898 4.72601C2.92866 3.45577 4.06463 2.441 5.42424 1.80942C5.79698 1.63557 5.77568 1.64266 5.74373 1.69943ZM11.8176 1.92651C13.0352 2.5368 14.1215 3.54447 14.8279 4.72601C14.9379 4.91051 15.0302 5.07018 15.0302 5.08082C15.0302 5.09147 14.5013 5.09502 13.8517 5.09147L12.6767 5.08082L12.5915 4.74375C12.3572 3.7822 11.8566 2.60421 11.3739 1.88748C11.2141 1.64976 11.2177 1.65331 11.3277 1.69588C11.381 1.71717 11.6011 1.82007 11.8176 1.92651ZM4.07528 6.57815C4.00783 7.10327 3.95458 7.95483 3.95458 8.50479C3.95458 9.05476 4.00783 9.90631 4.07528 10.4279L4.11788 10.7756H2.79732H1.47321L1.41996 10.5876C1.18921 9.77148 1.13597 9.39893 1.13597 8.50479C1.13597 7.62485 1.21761 7.04295 1.43771 6.34752L1.47676 6.23397H2.79732H4.11788L4.07528 6.57815ZM11.7892 6.58879C11.9418 7.83064 11.9418 9.17894 11.7892 10.4208L11.7466 10.7579L8.50909 10.7685C5.44909 10.7756 5.27159 10.7721 5.25384 10.7153C5.18284 10.4669 5.09055 9.21088 5.09055 8.50479C5.09055 7.79871 5.18284 6.54266 5.25384 6.29429C5.27159 6.23752 5.44909 6.23397 8.50909 6.24107L11.7466 6.25171L11.7892 6.58879ZM15.5769 6.41848C15.8077 7.2381 15.8609 7.61066 15.8609 8.50479C15.8609 9.39893 15.8077 9.77148 15.5769 10.5876L15.5237 10.7756H14.1996H12.879L12.9216 10.4279C12.9891 9.90631 13.0423 9.05476 13.0423 8.50479C13.0423 7.95483 12.9891 7.10327 12.9216 6.57815L12.879 6.23397H14.1996H15.5237L15.5769 6.41848ZM4.41962 12.3191C4.66456 13.2913 5.1438 14.4054 5.62303 15.1221C5.77923 15.3563 5.77923 15.3563 5.63368 15.296C4.24567 14.7247 2.96061 13.6035 2.16898 12.2836C2.05894 12.0991 1.96664 11.9394 1.96664 11.9288C1.96664 11.9181 2.49557 11.9146 3.14166 11.9181L4.32022 11.9288L4.41962 12.3191ZM11.4733 12.0423C11.0331 13.7099 10.2876 14.9944 9.43561 15.5621C9.08773 15.7962 8.87118 15.8672 8.49844 15.8672C8.1257 15.8672 7.90916 15.7962 7.56127 15.5621C6.7519 15.0228 5.98512 13.7419 5.57688 12.2375L5.48458 11.911H8.49844H11.5088L11.4733 12.0423ZM15.0302 11.9288C15.0302 11.9394 14.9379 12.0991 14.8279 12.2836C14.2741 13.2132 13.4718 14.047 12.5595 14.6537C12.24 14.8631 11.5798 15.2179 11.3242 15.3172C11.2248 15.3527 11.2248 15.3527 11.2745 15.2747C11.8744 14.3557 12.3856 13.1884 12.6021 12.2375C12.6305 12.1062 12.6625 11.9784 12.6696 11.9536C12.6802 11.9217 12.95 11.911 13.8588 11.911C14.5013 11.911 15.0302 11.9181 15.0302 11.9288Z" fill="#61A5D8"/>
</svg>
