<svg width="55" height="55" viewBox="0 0 55 55" fill="none" xmlns="http://www.w3.org/2000/svg">
<path fill-rule="evenodd" clip-rule="evenodd" d="M27.5 0C12.3063 0 0 12.6175 0 28.1956C0 40.6721 7.87188 51.2102 18.8031 54.9461C20.1781 55.1928 20.6938 54.347 20.6938 53.6068C20.6938 52.9372 20.6594 50.7168 20.6594 48.3554C13.75 49.6595 11.9625 46.6284 11.4125 45.0424C11.1031 44.2318 9.7625 41.7295 8.59375 41.0598C7.63125 40.5311 6.25625 39.2271 8.55937 39.1919C10.725 39.1566 12.2719 41.236 12.7875 42.0819C15.2625 46.3465 19.2156 45.1482 20.7969 44.408C21.0375 42.5753 21.7594 41.3418 22.55 40.6369C16.4313 39.932 10.0375 37.5001 10.0375 26.7153C10.0375 23.649 11.1031 21.1114 12.8563 19.1378C12.5813 18.4329 11.6188 15.5428 13.1313 11.6659C13.1313 11.6659 15.4344 10.9258 20.6938 14.556C22.8937 13.9216 25.2313 13.6044 27.5688 13.6044C29.9062 13.6044 32.2438 13.9216 34.4438 14.556C39.7031 10.8905 42.0063 11.6659 42.0063 11.6659C43.5188 15.5428 42.5563 18.4329 42.2813 19.1378C44.0344 21.1114 45.1 23.6138 45.1 26.7153C45.1 37.5354 38.6719 39.932 32.5531 40.6369C33.55 41.518 34.4094 43.2097 34.4094 45.8531C34.4094 49.6242 34.375 52.6552 34.375 53.6068C34.375 54.347 34.8906 55.2281 36.2656 54.9461C41.7248 53.0564 46.4685 49.459 49.8292 44.6603C53.1899 39.8616 54.9984 34.1032 55 28.1956C55 12.6175 42.6938 0 27.5 0Z" fill="#1F1F1F"/>
</svg>
